<svg width="420" height="301" viewBox="0 0 420 301" fill="none" xmlns="http://www.w3.org/2000/svg">
<path d="M299.314 205.196C303.117 205.196 306.199 202.113 306.199 198.31C306.199 194.507 303.117 191.424 299.314 191.424C295.511 191.424 292.428 194.507 292.428 198.31C292.428 202.113 295.511 205.196 299.314 205.196Z" fill="#EAEEF9"/>
<path d="M286.091 224.407C288.688 224.407 290.794 222.302 290.794 219.704C290.794 217.107 288.688 215.002 286.091 215.002C283.494 215.002 281.389 217.107 281.389 219.704C281.389 222.302 283.494 224.407 286.091 224.407Z" fill="#EAEEF9"/>
<path d="M133.714 109.468C136.311 109.468 138.417 107.362 138.417 104.765C138.417 102.168 136.311 100.062 133.714 100.062C131.117 100.062 129.012 102.168 129.012 104.765C129.012 107.362 131.117 109.468 133.714 109.468Z" fill="#EAEEF9"/>
<path d="M104.997 200.158C109.82 200.158 113.73 196.248 113.73 191.425C113.73 186.601 109.82 182.691 104.997 182.691C100.174 182.691 96.2637 186.601 96.2637 191.425C96.2637 196.248 100.174 200.158 104.997 200.158Z" fill="#EAEEF9"/>
<path d="M211.056 243.992C258.081 243.992 296.205 205.868 296.205 158.675C296.205 111.482 258.081 73.3574 211.056 73.3574C164.03 73.3574 125.906 111.482 125.906 158.675C125.906 205.868 164.03 243.992 211.056 243.992Z" fill="#EAEEF9"/>
<path d="M260.509 86.1816C263.041 86.1816 265.184 88.1203 265.184 90.8344V228.092C265.184 230.612 263.236 232.745 260.509 232.745H159.004C156.471 232.745 154.328 230.806 154.328 228.092V90.8344C154.328 88.3142 156.276 86.1816 159.004 86.1816H260.509Z" fill="#CED7E2"/>
<path d="M265.182 100.527V227.898C265.182 230.418 263.234 232.551 260.506 232.551H167.769L159.586 224.408L251.739 98.201L259.727 95.293L265.182 100.527Z" fill="#BCC4CF"/>
<path d="M260.116 96.8439C260.116 96.0684 259.532 95.293 258.558 95.293H161.145C160.365 95.293 159.586 95.8746 159.586 96.8439V222.857C159.586 223.633 160.17 224.408 161.145 224.408H258.363C259.142 224.408 259.922 223.827 259.922 222.857L260.116 96.8439Z" fill="#D9DFEE"/>
<path d="M260.113 96.8439C260.113 96.0684 259.528 95.293 258.554 95.293H161.141C160.361 95.293 159.582 95.8746 159.582 96.8439C160.751 147.055 161.141 203.858 155.686 218.592L249.007 217.235C254.657 191.645 258.944 145.698 260.113 96.8439Z" fill="#EFF3FB"/>
<g filter="url(#filter0_d_608_3728)">
<path d="M259.921 95.4863C259.921 95.4863 259.726 103.047 257.389 151.32C257.389 151.708 257.389 151.902 257.389 152.289C254.466 199.593 212.384 209.48 207.318 210.062C204.98 210.255 200.499 210.643 192.511 210.643C182.575 211.031 167.379 211.225 143.61 211.419C142.831 211.419 142.246 210.643 142.636 209.868C159.001 177.104 159.196 95.6802 159.196 95.6802L259.921 95.4863Z" fill="white"/>
</g>
<path d="M257.196 152.096C254.468 199.399 212.191 209.286 207.125 209.868C204.787 210.062 200.306 210.45 192.318 210.45C213.36 200.756 224.66 183.308 224.465 169.738C234.596 170.513 252.13 169.738 257.196 152.096Z" fill="#EAEEF9"/>
<path d="M233.425 86.5696C233.425 86.3757 233.425 86.3757 233.425 86.5696L232.451 85.6002C232.451 85.6002 231.866 85.7941 231.671 86.1818H216.475C216.475 85.7941 216.475 85.6002 216.475 85.2125C216.475 82.1106 213.747 79.3965 210.63 79.3965C207.513 79.3965 204.785 82.1106 204.785 85.2125C204.785 85.6002 204.785 85.7941 204.98 85.988H189.199C188.42 85.988 187.641 86.5696 187.641 87.7328V92.7733C187.641 96.6506 190.368 98.977 194.07 98.977H226.411C230.308 98.977 233.62 96.6506 233.62 92.7733V87.5389C233.814 87.1512 233.62 86.7634 233.425 86.5696Z" fill="#1C3754"/>
<path d="M232.84 86.5687V91.6092C232.84 91.997 232.84 92.1908 232.84 92.5786C232.255 95.8743 229.528 98.5884 226.021 98.5884H193.485C189.978 98.5884 187.25 95.8743 186.666 92.5786C186.666 92.1908 186.666 91.997 186.666 91.6092V86.5687C186.666 85.7932 187.25 84.8239 188.225 84.8239H204.2C204.2 84.4362 204.2 84.2423 204.2 84.0484C204.2 80.9466 206.928 78.2324 210.045 78.2324C213.162 78.2324 215.89 80.9466 215.89 84.0484C215.89 84.4362 215.89 84.63 215.89 84.8239H231.866C232.255 85.0178 232.84 85.5994 232.84 86.5687Z" fill="url(#paint0_linear_608_3728)"/>
<path d="M209.655 86.7623C211.214 86.7623 212.383 85.5991 212.383 84.0481C212.383 82.4972 211.214 81.334 209.655 81.334C208.097 81.334 206.928 82.4972 206.928 84.0481C206.928 85.5991 208.292 86.7623 209.655 86.7623Z" fill="#EAEEF9"/>
<path d="M232.645 92.5781C232.061 95.8739 229.333 98.588 225.826 98.588H193.485C189.978 98.588 187.25 95.8739 186.666 92.5781H232.645Z" fill="#9AA1B2"/>
<path d="M315.447 96.0684C319.733 116.23 319.148 137.556 313.304 157.33C311.94 161.401 310.576 165.86 307.654 168.962C303.562 173.809 296.159 175.941 290.119 174.391C283.885 172.84 278.819 167.411 277.65 160.82C276.676 156.749 278.04 151.902 281.547 149.382C285.249 147.055 290.509 147.637 293.626 150.545C297.133 153.453 298.497 157.912 298.302 162.177C298.107 166.442 296.549 170.707 294.405 174.391C287.976 186.41 276.287 195.91 262.844 200.175C252.907 203.277 242.192 203.277 232.256 200.563" stroke="#C9D4E2" stroke-width="2" stroke-miterlimit="10" stroke-dasharray="4 4"/>
<path d="M323.631 90.2528C323.046 92.3854 320.709 93.1608 318.371 91.8038C315.838 90.6406 314.084 89.6712 314.474 87.7326C315.059 85.7939 317.397 85.6 320.124 85.4062C323.436 85.0184 324.021 88.1203 323.631 90.2528Z" fill="#DAE2EB"/>
<path d="M304.731 92.192C305.705 93.9368 308.432 95.1 310.381 93.3552C312.524 91.4165 314.277 90.0594 313.303 88.1208C312.329 86.376 310.77 86.9576 307.458 87.3453C304.731 87.9269 303.562 90.2533 304.731 92.192Z" fill="#DAE2EB"/>
<path d="M313.305 85.018C314.668 84.8241 316.032 85.5996 316.422 86.7628C316.617 87.1505 316.812 87.7321 316.812 88.1198C317.201 90.834 316.227 93.1604 314.668 93.3542C312.915 93.742 311.162 91.8033 310.967 89.283C310.967 88.5076 310.967 88.1198 310.967 87.5382C311.162 86.1812 311.941 85.2118 313.305 85.018C313.305 85.018 313.5 85.018 313.305 85.018Z" fill="#989FB0"/>
<defs>
<filter id="filter0_d_608_3728" x="120.512" y="84.4863" width="161.41" height="159.932" filterUnits="userSpaceOnUse" color-interpolation-filters="sRGB">
<feFlood flood-opacity="0" result="BackgroundImageFix"/>
<feColorMatrix in="SourceAlpha" type="matrix" values="0 0 0 0 0 0 0 0 0 0 0 0 0 0 0 0 0 0 127 0" result="hardAlpha"/>
<feOffset dy="11"/>
<feGaussianBlur stdDeviation="11"/>
<feColorMatrix type="matrix" values="0 0 0 0 0.397708 0 0 0 0 0.47749 0 0 0 0 0.575 0 0 0 0.27 0"/>
<feBlend mode="normal" in2="BackgroundImageFix" result="effect1_dropShadow_608_3728"/>
<feBlend mode="normal" in="SourceGraphic" in2="effect1_dropShadow_608_3728" result="shape"/>
</filter>
<linearGradient id="paint0_linear_608_3728" x1="186.722" y1="88.4129" x2="232.884" y2="88.4129" gradientUnits="userSpaceOnUse">
<stop stop-color="#B0BACC"/>
<stop offset="1" stop-color="#969EAE"/>
</linearGradient>
</defs>
</svg>
