<svg width="421" height="301" viewBox="0 0 421 301" fill="none" xmlns="http://www.w3.org/2000/svg">
<path d="M210.269 243.307C256.305 243.307 293.817 205.95 293.817 160.069C293.662 114.032 256.305 76.6758 210.269 76.6758C164.077 76.6758 126.721 114.032 126.721 159.914C126.721 205.95 164.077 243.307 210.269 243.307Z" fill="#EAEEF9"/>
<path d="M295.83 130.927C299.34 130.927 302.185 128.082 302.185 124.572C302.185 121.062 299.34 118.217 295.83 118.217C292.32 118.217 289.475 121.062 289.475 124.572C289.475 128.082 292.32 130.927 295.83 130.927Z" fill="#EAEEF9"/>
<path d="M305.131 106.128C307.528 106.128 309.471 104.184 309.471 101.787C309.471 99.3904 307.528 97.4473 305.131 97.4473C302.734 97.4473 300.791 99.3904 300.791 101.787C300.791 104.184 302.734 106.128 305.131 106.128Z" fill="#EAEEF9"/>
<path d="M119.59 215.871C124.041 215.871 127.65 212.262 127.65 207.81C127.65 203.359 124.041 199.75 119.59 199.75C115.138 199.75 111.529 203.359 111.529 207.81C111.529 212.262 115.138 215.871 119.59 215.871Z" fill="#EAEEF9"/>
<g filter="url(#filter0_d_608_3682)">
<path d="M268.871 124.99V225.947C268.871 233.303 263.037 239.137 255.681 239.137H164.87C157.514 239.137 151.68 233.303 151.68 225.947V93.79C151.68 86.4338 157.514 80.5996 164.87 80.5996H224.734C228.032 80.5996 231.075 81.8679 233.358 84.1509L265.32 116.112C267.603 118.649 268.871 121.693 268.871 124.99Z" fill="url(#paint0_linear_608_3682)"/>
</g>
<g filter="url(#filter1_d_608_3682)">
<path d="M230.75 82.1641V109.972C230.75 115.352 235.306 119.656 240.483 119.656H267.686C267.1 118.394 266.304 117.206 265.32 116.112L233.359 84.1512C232.572 83.3651 231.696 82.6992 230.75 82.1641Z" fill="#D5DDEA"/>
</g>
<path d="M190.865 211.645H169.712C168.922 211.645 168.291 210.806 168.291 209.799C168.291 208.792 168.922 207.953 169.712 207.953H190.865C191.654 207.953 192.285 208.792 192.285 209.799C192.285 210.973 191.654 211.645 190.865 211.645Z" fill="#D5DDEA"/>
<path d="M217.916 108.285H170.346C169.239 108.285 168.291 107.433 168.291 106.439C168.291 105.446 169.239 104.594 170.346 104.594H217.916C219.023 104.594 219.971 105.446 219.971 106.439C219.971 107.433 219.023 108.285 217.916 108.285Z" fill="#D6DCE8"/>
<path d="M188.555 119.359H170.333C169.234 119.359 168.291 118.508 168.291 117.514C168.291 116.52 169.234 115.668 170.333 115.668H188.398C189.497 115.668 190.44 116.52 190.44 117.514C190.44 118.508 189.497 119.359 188.555 119.359Z" fill="#D6DCE8"/>
<path d="M251.705 183.961H196.234H190.12H171.63C170.884 183.961 170.139 184.73 170.139 185.807C170.139 186.73 170.735 187.652 171.63 187.652H190.12H196.234H251.705C252.45 187.652 253.196 186.883 253.196 185.807C253.047 184.73 252.45 183.961 251.705 183.961Z" fill="#D6DCE8"/>
<path d="M251.702 171.039H231.087H224.066H171.633C170.886 171.039 170.139 171.808 170.139 172.885C170.139 173.808 170.736 174.73 171.633 174.73H224.066H231.087H251.702C252.449 174.73 253.196 173.961 253.196 172.885C253.046 171.808 252.449 171.039 251.702 171.039Z" fill="#D6DCE8"/>
<path d="M251.837 158.119H246.48H241.123H171.627C170.883 158.119 170.139 158.888 170.139 159.965C170.139 160.888 170.734 161.811 171.627 161.811H241.123H247.075H251.689C252.433 161.811 253.177 161.042 253.177 159.965C253.326 159.042 252.581 158.119 251.837 158.119Z" fill="#D6DCE8"/>
<path d="M251.721 145.199H234.46H230.182H171.614C170.876 145.199 170.139 145.968 170.139 147.045C170.139 147.968 170.729 148.891 171.614 148.891H230.182H234.46H251.573C252.606 148.891 253.196 148.122 253.196 147.045C253.196 146.122 252.606 145.199 251.721 145.199Z" fill="#D6DCE8"/>
<path d="M252.653 239.432C270.669 239.432 285.274 224.827 285.274 206.811C285.274 188.795 270.669 174.189 252.653 174.189C234.636 174.189 220.031 188.795 220.031 206.811C220.031 224.827 234.636 239.432 252.653 239.432Z" fill="url(#paint1_linear_608_3682)"/>
<path d="M254.636 193.721L262.806 202.396C263.767 203.417 263.767 205.203 262.806 206.223C261.845 207.244 260.163 207.244 259.081 206.223L255.357 202.396V216.429C255.357 217.96 254.155 219.236 252.713 219.236C251.271 219.236 250.07 217.96 250.07 216.429V202.396L246.345 206.223C245.384 207.244 243.702 207.244 242.62 206.223C242.02 205.586 241.779 204.948 241.779 204.31C241.779 203.672 242.02 202.779 242.62 202.396L250.791 193.721C251.151 193.338 251.992 192.828 252.593 192.828C253.194 192.828 254.275 193.083 254.636 193.721Z" fill="white"/>
<defs>
<filter id="filter0_d_608_3682" x="129.68" y="69.5996" width="161.191" height="202.537" filterUnits="userSpaceOnUse" color-interpolation-filters="sRGB">
<feFlood flood-opacity="0" result="BackgroundImageFix"/>
<feColorMatrix in="SourceAlpha" type="matrix" values="0 0 0 0 0 0 0 0 0 0 0 0 0 0 0 0 0 0 127 0" result="hardAlpha"/>
<feOffset dy="11"/>
<feGaussianBlur stdDeviation="11"/>
<feColorMatrix type="matrix" values="0 0 0 0 0.397708 0 0 0 0 0.47749 0 0 0 0 0.575 0 0 0 0.27 0"/>
<feBlend mode="normal" in2="BackgroundImageFix" result="effect1_dropShadow_608_3682"/>
<feBlend mode="normal" in="SourceGraphic" in2="effect1_dropShadow_608_3682" result="shape"/>
</filter>
<filter id="filter1_d_608_3682" x="208.75" y="71.1641" width="80.9355" height="81.4922" filterUnits="userSpaceOnUse" color-interpolation-filters="sRGB">
<feFlood flood-opacity="0" result="BackgroundImageFix"/>
<feColorMatrix in="SourceAlpha" type="matrix" values="0 0 0 0 0 0 0 0 0 0 0 0 0 0 0 0 0 0 127 0" result="hardAlpha"/>
<feOffset dy="11"/>
<feGaussianBlur stdDeviation="11"/>
<feColorMatrix type="matrix" values="0 0 0 0 0.397708 0 0 0 0 0.47749 0 0 0 0 0.575 0 0 0 0.27 0"/>
<feBlend mode="normal" in2="BackgroundImageFix" result="effect1_dropShadow_608_3682"/>
<feBlend mode="normal" in="SourceGraphic" in2="effect1_dropShadow_608_3682" result="shape"/>
</filter>
<linearGradient id="paint0_linear_608_3682" x1="210.237" y1="76.9325" x2="210.237" y2="240.847" gradientUnits="userSpaceOnUse">
<stop stop-color="#FDFEFF"/>
<stop offset="0.9964" stop-color="#ECF0F5"/>
</linearGradient>
<linearGradient id="paint1_linear_608_3682" x1="220.001" y1="206.818" x2="285.286" y2="206.818" gradientUnits="userSpaceOnUse">
<stop stop-color="#B0BACC"/>
<stop offset="1" stop-color="#969EAE"/>
</linearGradient>
</defs>
</svg>
