<svg width="420" height="301" viewBox="0 0 420 301" fill="none" xmlns="http://www.w3.org/2000/svg">
<path d="M207.552 237.304C253.279 237.304 290.349 200.001 290.349 153.986C290.349 107.971 253.279 70.668 207.552 70.668C161.824 70.668 124.754 107.971 124.754 153.986C124.754 200.001 161.824 237.304 207.552 237.304Z" fill="#EAEEF9"/>
<path d="M310.203 162.026C312.784 159.652 312.964 155.623 310.605 153.026C308.247 150.428 304.243 150.247 301.662 152.62C299.081 154.994 298.9 159.023 301.259 161.621C303.618 164.218 307.622 164.399 310.203 162.026Z" fill="#EAEEF9"/>
<path d="M141.203 90.6837C143.391 89.9683 144.588 87.6038 143.877 85.4026C143.166 83.2014 140.816 81.9969 138.629 82.7124C136.441 83.4278 135.244 85.7923 135.955 87.9935C136.666 90.1947 139.016 91.3992 141.203 90.6837Z" fill="#EAEEF9"/>
<path d="M115.569 108.784C117.057 108.297 117.871 106.689 117.387 105.193C116.904 103.696 115.306 102.877 113.818 103.363C112.331 103.85 111.517 105.458 112 106.954C112.484 108.451 114.082 109.27 115.569 108.784Z" fill="#EAEEF9"/>
<path d="M304.349 103.694C305.436 102.694 305.512 100.998 304.519 99.9041C303.526 98.8105 301.84 98.7342 300.753 99.7335C299.666 100.733 299.59 102.429 300.583 103.523C301.576 104.617 303.262 104.693 304.349 103.694Z" fill="#EAEEF9"/>
<path d="M216.456 64.4988C217.203 63.8114 217.256 62.6445 216.572 61.8923C215.889 61.1402 214.73 61.0876 213.982 61.775C213.235 62.4623 213.183 63.6293 213.866 64.3814C214.549 65.1336 215.708 65.1861 216.456 64.4988Z" fill="#EAEEF9"/>
<g filter="url(#filter0_d_608_3568)">
<path d="M257.953 226.452C257.953 234.674 251.182 241.203 243.202 241.203H171.625C163.404 241.203 156.633 234.432 156.633 226.452V83.7819C156.633 75.5602 163.404 69.0312 171.625 69.0312H243.202C251.424 69.0312 257.953 75.802 257.953 83.7819V226.452Z" fill="url(#paint0_linear_608_3568)"/>
</g>
<path d="M250.212 204.932C250.212 209.526 246.585 212.912 242.232 212.912H173.074C168.479 212.912 165.094 209.284 165.094 204.932V86.4428C165.094 81.8483 168.721 78.4629 173.074 78.4629H242.232C246.827 78.4629 250.212 82.0901 250.212 86.4428V204.932Z" fill="#D5DDEA" stroke="#D6DCE8" stroke-width="1.9781" stroke-miterlimit="10"/>
<path d="M207.41 234.432C211.55 234.432 214.907 231.076 214.907 226.936C214.907 222.796 211.55 219.439 207.41 219.439C203.27 219.439 199.914 222.796 199.914 226.936C199.914 231.076 203.27 234.432 207.41 234.432Z" fill="#C4CFDD"/>
<path d="M262.494 65.1083C261.402 64.2 261.346 62.4906 262.255 61.3988L273.047 50.4245C273.956 49.3327 275.665 49.2767 276.757 50.185C277.849 51.0934 277.905 52.8027 276.996 53.8945L266.204 64.8689C264.841 66.5066 263.423 66.435 262.494 65.1083Z" fill="#D5DDEA"/>
<path d="M251.799 59.6104C250.995 59.2097 250.492 58.7081 250.39 57.4027L248.363 42.3407C248.261 41.0353 249.063 39.4274 250.67 39.2247C251.975 39.1227 253.583 39.9242 253.484 41.6316L255.511 56.6936C255.613 57.999 254.811 59.6068 253.205 59.8096C252.803 59.6092 252.2 59.8108 251.799 59.6104Z" fill="#D5DDEA"/>
<path d="M269.726 75.7516C269.506 75.5231 269.514 75.074 269.073 74.617C269.096 73.2698 270.018 71.9385 271.594 71.7417L286.673 69.9865C288.02 70.0103 289.352 70.9322 289.548 72.5079C289.525 73.8551 288.603 75.1864 287.027 75.3832L271.948 77.1384C271.058 76.6735 270.167 76.2085 269.726 75.7516Z" fill="#D5DDEA"/>
<path d="M214.332 166.715H205.117C202.982 166.715 201.184 168.685 201.184 171.024V176.071C201.184 181.241 205.004 185.427 209.724 185.427C214.444 185.427 218.265 181.241 218.265 176.071V171.024C218.265 168.561 216.467 166.715 214.332 166.715Z" fill="white"/>
<g filter="url(#filter1_d_608_3568)">
<path fill-rule="evenodd" clip-rule="evenodd" d="M213.516 118.351C222.532 120.437 229.248 128.512 229.248 138.162V140.746C229.248 162.541 245.655 176.808 245.655 176.808H172.047C172.047 176.808 188.567 162.541 188.567 140.746V138.162C188.567 128.511 195.284 120.436 204.301 118.35V117.491C204.301 114.907 206.324 112.885 208.908 112.885C211.493 112.885 213.516 114.907 213.516 117.491V118.351Z" fill="url(#paint1_linear_608_3568)"/>
</g>
<defs>
<filter id="filter0_d_608_3568" x="134.633" y="58.0312" width="145.32" height="216.172" filterUnits="userSpaceOnUse" color-interpolation-filters="sRGB">
<feFlood flood-opacity="0" result="BackgroundImageFix"/>
<feColorMatrix in="SourceAlpha" type="matrix" values="0 0 0 0 0 0 0 0 0 0 0 0 0 0 0 0 0 0 127 0" result="hardAlpha"/>
<feOffset dy="11"/>
<feGaussianBlur stdDeviation="11"/>
<feColorMatrix type="matrix" values="0 0 0 0 0.397708 0 0 0 0 0.47749 0 0 0 0 0.575 0 0 0 0.27 0"/>
<feBlend mode="normal" in2="BackgroundImageFix" result="effect1_dropShadow_608_3568"/>
<feBlend mode="normal" in="SourceGraphic" in2="effect1_dropShadow_608_3568" result="shape"/>
</filter>
<filter id="filter1_d_608_3568" x="150.047" y="101.885" width="117.609" height="107.924" filterUnits="userSpaceOnUse" color-interpolation-filters="sRGB">
<feFlood flood-opacity="0" result="BackgroundImageFix"/>
<feColorMatrix in="SourceAlpha" type="matrix" values="0 0 0 0 0 0 0 0 0 0 0 0 0 0 0 0 0 0 127 0" result="hardAlpha"/>
<feOffset dy="11"/>
<feGaussianBlur stdDeviation="11"/>
<feColorMatrix type="matrix" values="0 0 0 0 0.397708 0 0 0 0 0.47749 0 0 0 0 0.575 0 0 0 0.27 0"/>
<feBlend mode="normal" in2="BackgroundImageFix" result="effect1_dropShadow_608_3568"/>
<feBlend mode="normal" in="SourceGraphic" in2="effect1_dropShadow_608_3568" result="shape"/>
</filter>
<linearGradient id="paint0_linear_608_3568" x1="207.26" y1="65.0488" x2="207.26" y2="243.059" gradientUnits="userSpaceOnUse">
<stop stop-color="#FDFEFF"/>
<stop offset="0.9964" stop-color="#ECF0F5"/>
</linearGradient>
<linearGradient id="paint1_linear_608_3568" x1="208.827" y1="111.406" x2="208.827" y2="177.498" gradientUnits="userSpaceOnUse">
<stop stop-color="#FDFEFF"/>
<stop offset="0.9964" stop-color="#ECF0F5"/>
</linearGradient>
</defs>
</svg>
