<svg width="420" height="300" viewBox="0 0 420 300" fill="none" xmlns="http://www.w3.org/2000/svg">
<path d="M210.001 238.511C256.642 238.511 294.392 200.538 294.392 153.687C294.392 106.836 256.642 69 210.001 69C163.498 69 125.611 106.973 125.611 153.824C125.611 200.675 163.498 238.511 210.001 238.511Z" fill="#EAEEF9"/>
<path d="M113.438 173.536C116.584 173.536 119.046 171.078 119.046 167.936C119.046 164.795 116.584 162.336 113.438 162.336C110.292 162.336 107.83 164.795 107.83 167.936C107.83 171.078 110.429 173.536 113.438 173.536Z" fill="#EAEEF9"/>
<path d="M107.83 155.368C109.881 155.368 111.659 153.592 111.659 151.543C111.659 149.494 109.881 147.719 107.83 147.719C105.778 147.719 104 149.494 104 151.543C104 153.729 105.778 155.368 107.83 155.368Z" fill="#EAEEF9"/>
<path d="M308.478 187.604C312.444 187.604 315.59 184.462 315.59 180.501C315.59 176.54 312.444 173.398 308.478 173.398C304.511 173.398 301.365 176.54 301.365 180.501C301.365 184.462 304.511 187.604 308.478 187.604Z" fill="#EAEEF9"/>
<circle cx="208.088" cy="109.69" r="3.2991" fill="#C4C4C4"/>
<g filter="url(#filter0_d_1296_4315)">
<path d="M271.804 224.478H147.965C143.35 224.478 139.504 220.665 139.504 216.089V91.0068C139.504 86.4307 143.35 82.6172 147.965 82.6172H271.804C276.419 82.6172 280.265 86.4307 280.265 91.0068V216.089C280.265 220.665 276.419 224.478 271.804 224.478Z" fill="url(#paint0_linear_1296_4315)"/>
</g>
<path d="M256.393 185.726H160.887C159.745 185.726 158.604 184.457 158.604 183.188V171.768C158.604 170.499 159.745 169.23 160.887 169.23H256.393C257.535 169.23 258.676 170.499 258.676 171.768V183.188C258.676 184.457 257.535 185.726 256.393 185.726Z" fill="#D5DDEA"/>
<path d="M256.393 209.921H160.887C159.745 209.921 158.604 208.652 158.604 207.383V195.964C158.604 194.695 159.745 193.426 160.887 193.426H256.393C257.535 193.426 258.676 194.695 258.676 195.964V207.383C258.676 208.652 257.535 209.921 256.393 209.921Z" fill="#D5DDEA"/>
<rect x="165.199" y="175.828" width="42.8882" height="3.2991" fill="#989FB0"/>
<rect x="165.199" y="200.023" width="3.2991" height="3.2991" rx="1.64955" fill="#AAB2C5"/>
<rect x="171.797" y="200.023" width="3.2991" height="3.2991" rx="1.64955" fill="#AAB2C5"/>
<rect x="178.395" y="200.023" width="3.2991" height="3.2991" rx="1.64955" fill="#AAB2C5"/>
<rect x="184.994" y="200.023" width="3.2991" height="3.2991" rx="1.64955" fill="#AAB2C5"/>
<rect x="190.492" y="200.023" width="3.2991" height="3.2991" rx="1.64955" fill="#AAB2C5"/>
<rect x="197.092" y="200.023" width="3.2991" height="3.2991" rx="1.64955" fill="#AAB2C5"/>
<path d="M244.216 124.848C244.216 129.313 243.471 133.407 241.797 137.314C238.076 146.988 230.076 154.431 220.215 157.779C216.866 158.896 213.331 159.454 209.61 159.454C190.446 159.454 175.004 144.012 175.004 124.848C175.004 105.685 190.446 90.2422 209.61 90.2422C228.773 90.2422 244.216 105.871 244.216 124.848Z" fill="url(#paint1_linear_1296_4315)"/>
<path d="M216.774 119.878V113.238C216.774 109.616 213.678 106.598 209.963 106.598C208.105 106.598 206.454 107.403 205.009 108.61C203.771 109.817 202.946 111.427 202.946 113.439V120.079C201.088 121.287 199.643 122.695 198.405 124.707C197.373 126.518 196.754 128.732 196.754 130.945C196.754 137.988 202.533 143.622 209.756 143.622C216.98 143.622 222.759 137.988 222.759 130.945C222.965 126.116 220.489 122.091 216.774 119.878ZM211.407 132.152V135.573C211.407 135.975 210.995 136.378 210.582 136.378H209.137C208.724 136.378 208.312 135.975 208.312 135.573V133.36V132.152C207.073 131.549 206.454 130.14 206.661 128.732C206.867 127.524 207.899 126.518 209.137 126.317C211.201 125.915 213.059 127.524 213.059 129.335C213.059 130.543 212.439 131.549 211.407 132.152ZM213.471 118.47C212.233 118.067 211.201 117.866 209.756 117.866C208.518 117.866 207.28 118.067 206.041 118.47V113.439C206.041 112.433 206.454 111.427 207.073 110.823C207.692 110.22 208.724 109.817 209.756 109.817C211.82 109.817 213.471 111.427 213.471 113.439V118.47Z" fill="white"/>
<path d="M181.116 156.274C173.815 149.129 169.681 139.51 169.544 129.342H171.886C173.264 129.342 173.952 127.831 173.126 126.732L168.166 120.411C167.477 119.587 166.237 119.587 165.548 120.411L160.589 126.732C159.762 127.831 160.589 129.342 161.829 129.342H163.895C164.033 141.022 168.855 152.014 177.259 160.258C177.81 160.808 178.499 161.083 179.188 161.083C179.877 161.083 180.565 160.808 181.116 160.258C182.219 159.022 182.219 157.373 181.116 156.274Z" fill="#D5DDEA"/>
<path d="M258.592 124.411H256.388C256.25 112.732 251.566 101.877 243.299 93.633C242.197 92.5338 240.544 92.5338 239.442 93.633C238.34 94.7322 238.34 96.3811 239.442 97.4803C246.744 104.625 250.739 114.244 250.877 124.411H248.673C247.295 124.411 246.606 125.923 247.433 127.022L252.392 133.343C253.081 134.167 254.321 134.167 255.01 133.343L259.97 127.022C260.659 125.923 259.97 124.411 258.592 124.411Z" fill="#D5DDEA"/>
<defs>
<filter id="filter0_d_1296_4315" x="117.504" y="71.6172" width="184.762" height="185.859" filterUnits="userSpaceOnUse" color-interpolation-filters="sRGB">
<feFlood flood-opacity="0" result="BackgroundImageFix"/>
<feColorMatrix in="SourceAlpha" type="matrix" values="0 0 0 0 0 0 0 0 0 0 0 0 0 0 0 0 0 0 127 0" result="hardAlpha"/>
<feOffset dy="11"/>
<feGaussianBlur stdDeviation="11"/>
<feColorMatrix type="matrix" values="0 0 0 0 0.397708 0 0 0 0 0.47749 0 0 0 0 0.575 0 0 0 0.27 0"/>
<feBlend mode="normal" in2="BackgroundImageFix" result="effect1_dropShadow_1296_4315"/>
<feBlend mode="normal" in="SourceGraphic" in2="effect1_dropShadow_1296_4315" result="shape"/>
</filter>
<linearGradient id="paint0_linear_1296_4315" x1="209.839" y1="79.3358" x2="209.839" y2="226.008" gradientUnits="userSpaceOnUse">
<stop stop-color="#FDFEFF"/>
<stop offset="0.9964" stop-color="#ECF0F5"/>
</linearGradient>
<linearGradient id="paint1_linear_1296_4315" x1="174.972" y1="124.856" x2="244.228" y2="124.856" gradientUnits="userSpaceOnUse">
<stop stop-color="#B0BACC"/>
<stop offset="1" stop-color="#969EAE"/>
</linearGradient>
</defs>
</svg>
