<svg width="420" height="300" viewBox="0 0 420 300" fill="none" xmlns="http://www.w3.org/2000/svg">
<path d="M211.051 232.449C256.99 232.449 294.172 195.61 294.172 150.158C294.172 104.706 256.99 68 211.051 68C165.247 68 127.93 104.839 127.93 150.291C127.93 195.743 165.247 232.449 211.051 232.449Z" fill="#EAEEF9"/>
<path d="M250.787 232.142C238.124 232.54 222.901 232.142 212.123 232.01C201.48 232.407 186.123 232.54 173.459 232.142C185.988 225.119 190.433 212 190.972 203.387H233.004C233.947 211.868 238.393 225.119 250.787 232.142Z" fill="#D5DDEA"/>
<g filter="url(#filter0_d_1295_4241)">
<path d="M291.47 93.665V201.928C291.47 204.711 289.314 206.699 286.889 206.699H138.16C135.601 206.699 133.58 204.579 133.58 201.928V93.665C133.58 91.1473 135.736 88.8945 138.16 88.8945H286.62C289.449 89.027 291.47 91.1473 291.47 93.665Z" fill="white"/>
</g>
<path d="M291.117 93.0287V188.427H133.23V93.0287C133.23 90.4303 135.441 88.2031 137.836 88.2031H286.327C289.09 88.2031 291.117 90.4303 291.117 93.0287Z" fill="#989FB0"/>
<path d="M285.441 95.0664H138.723V182.934H285.626V95.0664H285.441Z" fill="white"/>
<rect x="144.979" y="101.445" width="45.4928" height="34.1395" fill="#EAEEF9"/>
<rect x="201.303" y="101.445" width="75.8213" height="13.8692" fill="#EAEEF9"/>
<rect x="201.303" y="143.051" width="75.8213" height="13.8692" fill="#EAEEF9"/>
<rect x="201.303" y="120.645" width="75.8213" height="6.40116" fill="#EAEEF9"/>
<rect x="201.303" y="162.254" width="75.8213" height="6.40117" fill="#EAEEF9"/>
<rect x="144.979" y="143.051" width="45.4928" height="34.1395" fill="#EAEEF9"/>
<path d="M212.256 200.209C214.412 200.209 216.163 198.619 216.163 196.366C216.163 194.246 214.547 192.523 212.256 192.523C210.101 192.523 208.35 194.114 208.35 196.366C208.35 198.487 209.966 200.209 212.256 200.209Z" fill="#D6DDE8"/>
<path d="M103 232.406H315.855" stroke="#D6DDE8" stroke-width="2" stroke-miterlimit="10" stroke-linecap="round" stroke-linejoin="round"/>
<path d="M117.959 140.354C121.058 140.354 123.482 137.969 123.482 134.921C123.482 131.874 121.058 129.488 117.959 129.488C114.86 129.488 112.436 131.874 112.436 134.921C112.436 137.969 114.995 140.354 117.959 140.354Z" fill="#EAEEF9"/>
<path d="M112.438 122.729C114.459 122.729 116.21 121.007 116.21 119.019C116.21 117.031 114.459 115.309 112.438 115.309C110.417 115.309 108.666 117.031 108.666 119.019C108.666 121.139 110.417 122.729 112.438 122.729Z" fill="#EAEEF9"/>
<path d="M310.07 154C313.977 154 317.075 150.952 317.075 147.109C317.075 143.267 313.977 140.219 310.07 140.219C306.163 140.219 303.064 143.267 303.064 147.109C303.064 150.952 306.163 154 310.07 154Z" fill="#EAEEF9"/>
<path d="M246.798 139.318C246.798 143.929 246.018 148.157 244.262 152.192C240.361 162.184 231.972 169.87 221.632 173.328C218.121 174.481 214.414 175.058 210.512 175.058C190.419 175.058 174.227 159.109 174.227 139.318C174.227 119.527 190.419 103.578 210.512 103.578C230.606 103.578 246.798 119.719 246.798 139.318Z" fill="url(#paint0_linear_1295_4241)"/>
<path d="M203.759 159.592C202.748 159.592 201.797 159.213 201.025 158.392L187.89 144.43C186.404 142.851 186.404 140.197 187.89 138.618C189.376 137.038 191.872 137.038 193.358 138.618L203.759 149.674L228.245 123.708C229.731 122.129 232.228 122.129 233.713 123.708C235.199 125.287 235.199 127.941 233.713 129.52L206.493 158.392C205.779 159.213 204.769 159.592 203.759 159.592Z" fill="white"/>
<path d="M155.206 226.363C155.206 229.555 152.577 232.184 149.384 232.184H117.087C113.895 232.184 111.266 229.555 111.266 226.363V150.501C111.266 147.309 113.895 144.68 117.087 144.68H149.197C152.389 144.68 155.018 147.309 155.018 150.501L155.206 226.363Z" fill="white"/>
<path d="M149.384 144.492C152.577 144.492 155.206 147.121 155.206 150.313V226.175C155.206 229.368 152.577 231.997 149.384 231.997H117.087C113.895 231.997 111.266 229.368 111.266 226.175V150.501C111.266 147.309 113.895 144.68 117.087 144.68L149.384 144.492Z" fill="#989FB0"/>
<path d="M152.389 150.501V226.363C152.389 227.865 151.262 229.367 149.572 229.367H149.384H117.086H116.899C115.396 229.367 114.082 228.053 114.082 226.363V150.501C114.082 148.811 115.396 147.496 116.899 147.496H121.593C122.344 147.496 122.72 148.06 122.72 148.623C122.72 149.75 123.659 150.876 124.973 150.876H141.31C142.436 150.876 143.563 149.937 143.563 148.623C143.563 147.872 144.126 147.496 144.502 147.496H149.009C150.886 147.309 152.389 148.811 152.389 150.501Z" fill="white"/>
<path d="M136.052 148.623H131.734C131.358 148.623 130.982 148.248 130.982 147.872C130.982 147.497 131.358 147.121 131.734 147.121H136.052C136.428 147.121 136.804 147.497 136.804 147.872C136.616 148.248 136.24 148.623 136.052 148.623Z" fill="white"/>
<path d="M129.291 148.623H128.915C128.54 148.623 128.164 148.248 128.164 147.872C128.164 147.497 128.54 147.121 128.915 147.121H129.291C129.666 147.121 130.042 147.497 130.042 147.872C130.042 148.248 129.666 148.623 129.291 148.623Z" fill="white"/>
<path d="M147.883 175.663H118.59C117.651 175.663 117.088 174.912 117.088 174.161V159.326C117.088 158.388 117.839 157.824 118.59 157.824H148.071C149.01 157.824 149.573 158.575 149.573 159.326V174.161C149.386 174.912 148.822 175.663 147.883 175.663Z" fill="#EAEEF4"/>
<path opacity="0.8" d="M147.883 197.823H118.59C117.651 197.823 117.088 197.072 117.088 196.321V181.487C117.088 180.548 117.839 179.984 118.59 179.984H148.071C149.01 179.984 149.573 180.735 149.573 181.487V196.321C149.386 197.072 148.822 197.823 147.883 197.823Z" fill="#E5E9F1"/>
<path opacity="0.5" d="M147.883 219.979H118.59C117.651 219.979 117.088 219.228 117.088 218.477V203.643C117.088 202.704 117.839 202.141 118.59 202.141H148.071C149.01 202.141 149.573 202.892 149.573 203.643V218.477C149.386 219.416 148.822 219.979 147.883 219.979Z" fill="#E5E9F1"/>
<path opacity="0.3" d="M149.386 226.178V229.182H149.198H117.088H116.9V226.178C116.9 225.239 117.652 224.676 118.403 224.676H147.884C148.823 224.676 149.386 225.427 149.386 226.178Z" fill="#E5E9F1"/>
<defs>
<filter id="filter0_d_1295_4241" x="111.58" y="77.8945" width="201.891" height="161.805" filterUnits="userSpaceOnUse" color-interpolation-filters="sRGB">
<feFlood flood-opacity="0" result="BackgroundImageFix"/>
<feColorMatrix in="SourceAlpha" type="matrix" values="0 0 0 0 0 0 0 0 0 0 0 0 0 0 0 0 0 0 127 0" result="hardAlpha"/>
<feOffset dy="11"/>
<feGaussianBlur stdDeviation="11"/>
<feColorMatrix type="matrix" values="0 0 0 0 0.397708 0 0 0 0 0.47749 0 0 0 0 0.575 0 0 0 0.27 0"/>
<feBlend mode="normal" in2="BackgroundImageFix" result="effect1_dropShadow_1295_4241"/>
<feBlend mode="normal" in="SourceGraphic" in2="effect1_dropShadow_1295_4241" result="shape"/>
</filter>
<linearGradient id="paint0_linear_1295_4241" x1="174.193" y1="139.326" x2="246.812" y2="139.326" gradientUnits="userSpaceOnUse">
<stop stop-color="#B0BACC"/>
<stop offset="1" stop-color="#969EAE"/>
</linearGradient>
</defs>
</svg>
