<?xml version="1.0" encoding="utf-8"?>
<!-- Generator: Adobe Illustrator 26.0.3, SVG Export Plug-In . SVG Version: 6.00 Build 0)  -->
<svg version="1.1" id="Layer_1" xmlns="http://www.w3.org/2000/svg" xmlns:xlink="http://www.w3.org/1999/xlink" x="0px" y="0px"
	 viewBox="0 0 512 512" style="enable-background:new 0 0 512 512;" xml:space="preserve">
<style type="text/css">
	.st0{fill:#E67F42;stroke:#FFFFFF;stroke-width:14;stroke-miterlimit:10;}
	.st1{fill:#EFEFEF;}
	.st2{fill:#131628;}
	.st3{fill:none;stroke:#131628;stroke-width:16;stroke-linecap:round;stroke-linejoin:round;stroke-miterlimit:10;}
	.st4{fill:none;stroke:#131628;stroke-width:16;stroke-miterlimit:10;}
	.st5{fill:none;stroke:#131628;stroke-width:16;stroke-linecap:round;stroke-miterlimit:10;}
	.st6{fill:none;stroke:#000000;stroke-width:16;stroke-miterlimit:10;}
	.st7{fill:#E67F42;}
	.st8{fill:#BF673C;}
	.st9{clip-path:url(#SVGID_00000171705734964168168060000007276194088235643839_);fill:#D16B43;}
	.st10{fill:none;stroke:#E67F42;stroke-width:14;stroke-miterlimit:10;}
	.st11{clip-path:url(#SVGID_00000067234950863273156080000007397402056253251762_);fill:#D16B43;}
	.st12{fill:#FFFFFF;}
	.st13{fill:#D8D8D8;}
	.st14{clip-path:url(#SVGID_00000140728461965241352860000012318345971253360063_);fill:#D16B43;}
	.st15{fill:#254F82;}
	.st16{fill:#1F3F72;}
	.st17{fill:none;stroke:#254F82;stroke-width:14;stroke-miterlimit:10;}
	.st18{clip-path:url(#SVGID_00000152232609488815761660000012967964394318004879_);fill:#F26033;}
</style>
<circle class="st0" cx="2050.9" cy="794.7" r="115.9"/>
<g>
	<g>
		<path class="st1" d="M1646.7,3051.7h-392c-33.1,0-60-26.9-60-60v-392c0-33.1,26.9-60,60-60h392c33.1,0,60,26.9,60,60v392
			C1706.7,3024.8,1679.8,3051.7,1646.7,3051.7z"/>
	</g>
	<path class="st2" d="M1600.5,2746c0,34.2-27.8,62-62,62h-227.3c-5.7,0-10.3-4.6-10.3-10.3c0-5.7,4.6-10.3,10.3-10.3h227.3
		c22.8,0,41.3-18.5,41.3-41.3c0-22.8-18.5-41.3-41.3-41.3c-5.7,0-10.3-4.6-10.3-10.3c0-5.7,4.6-10.3,10.3-10.3
		C1572.7,2684.1,1600.5,2711.9,1600.5,2746z M1311.2,2756.4h113.6c25.6,0,46.5-20.9,46.5-46.5c0-25.6-20.9-46.5-46.5-46.5
		c-5.7,0-10.3,4.6-10.3,10.3c0,5.7,4.6,10.3,10.3,10.3c14.2,0,25.8,11.6,25.8,25.8s-11.6,25.8-25.8,25.8h-113.6
		c-5.7,0-10.3,4.6-10.3,10.3C1300.9,2751.7,1305.5,2756.4,1311.2,2756.4L1311.2,2756.4z M1486.9,2839h-175.6
		c-5.7,0-10.3,4.6-10.3,10.3c0,5.7,4.6,10.3,10.3,10.3h175.6c14.2,0,25.8,11.6,25.8,25.8s-11.6,25.8-25.8,25.8
		c-5.7,0-10.3,4.6-10.3,10.3c0,5.7,4.6,10.3,10.3,10.3c25.6,0,46.5-20.9,46.5-46.5C1533.3,2859.9,1512.5,2839,1486.9,2839z"/>
</g>
<g>
	<g>
		<path class="st1" d="M2804.1,3047.4h-392c-33.1,0-60-26.9-60-60v-392c0-33.1,26.9-60,60-60h392c33.1,0,60,26.9,60,60v392
			C2864.1,3020.6,2837.2,3047.4,2804.1,3047.4z"/>
	</g>
	<g>
		<path class="st2" d="M2596.6,2965.9c47.4,9.2,88.5-26.9,88.5-72.9c0-24.1-12-46-30.4-59.5v-162.1c0-24.1-19.1-43.9-43.9-43.9
			c-24.1,0-43.9,19.8-43.9,43.9v162.1c-21.9,16.3-34.7,43.9-28.3,75C2544.2,2936.9,2567.6,2960.2,2596.6,2965.9L2596.6,2965.9z
			 M2576.1,2847l6.4-5v-169.9c0-15.6,12.7-27.6,27.6-27.6c15.6,0,28.3,12.7,28.3,27.6V2842l6.4,5c14.9,10.6,23.4,28.3,23.4,46.7
			c0,15.6-6.4,30.4-17,41.1c-11.3,10.6-25.5,17-41.1,17c-29,0-51.7-20.5-56.6-46C2549.9,2882.4,2558.4,2859.7,2576.1,2847z"/>
		<path class="st2" d="M2610.7,2934.7c11.3,0,21.9-4.2,29.7-12c7.8-7.8,12-18.4,12-29.7c0-28.3-24.1-37.5-30.4-43.2l0-179.1
			c0-6.5-5.2-11.7-11.7-11.7h0c-6.5,0-11.7,5.2-11.7,11.7v179.1c-5,5.7-36.1,17-29,51.7C2573.2,2919.9,2589.5,2934.7,2610.7,2934.7
			L2610.7,2934.7z"/>
		<path class="st2" d="M2713.4,2675.6H2673v16.3h40.4c4.2,0,7.8-3.5,7.8-7.8C2721.9,2679.2,2718.3,2675.6,2713.4,2675.6
			L2713.4,2675.6z"/>
		<path class="st2" d="M2705.6,2726.6c0-4.2-3.5-7.8-7.8-7.8h-24.1v16.3h24.1C2702.1,2734.4,2705.6,2730.9,2705.6,2726.6
			L2705.6,2726.6z"/>
		<path class="st2" d="M2721.9,2769.1c0-4.2-3.5-7.8-7.8-7.8h-40.4v16.3h40.4C2718.4,2777.6,2721.9,2773.3,2721.9,2769.1
			L2721.9,2769.1z"/>
		<path class="st2" d="M2504.8,2676.1c-5,0-8.5,3.5-7.8,8.5c0,4.2,3.5,7.8,7.8,7.8h40.4v-16.3L2504.8,2676.1L2504.8,2676.1z"/>
		<path class="st2" d="M2512.6,2727.1c0,4.2,3.5,7.8,7.8,8.5h24.1v-16.3h-24.1C2516.2,2719.3,2512.6,2722.8,2512.6,2727.1
			L2512.6,2727.1z"/>
		<path class="st2" d="M2496.4,2769.6c0,4.2,3.5,8.5,7.8,8.5h40.4v-16.3h-40.4C2499.9,2761.8,2496.4,2765.3,2496.4,2769.6
			L2496.4,2769.6z"/>
		<path class="st2" d="M2442.3,2756.8v26.1c0,5.9,6.4,9.5,11.4,6.6l22.6-13c5.1-2.9,5.1-10.3,0-13.2l-22.6-13
			C2448.7,2747.3,2442.3,2750.9,2442.3,2756.8z"/>
		<path class="st2" d="M2773.9,2670.8v26.1c0,5.9-6.4,9.5-11.4,6.6l-22.6-13c-5.1-2.9-5.1-10.3,0-13.2l22.6-13
			C2767.5,2661.3,2773.9,2664.9,2773.9,2670.8z"/>
	</g>
</g>
<g>
	<g>
		<path class="st1" d="M1648.8,3586h-392c-33.1,0-60-26.9-60-60v-392c0-33.1,26.9-60,60-60h392c33.1,0,60,26.9,60,60v392
			C1708.8,3559.1,1681.9,3586,1648.8,3586z"/>
	</g>
	<g>
		<path class="st2" d="M1509.2,3267.1c-20.5,1.3-41,15.4-55.2,44.9l0,0c-2.6,0-3.8,1.3-6.4,1.3c-9-19.2-6.4-47.5-5.1-66.7
			c3.8-23.1-24.4-25.7-39.8-19.2c-35.9,14.1-53.9,39.8-57.7,66.7c-7.7,51.3,38.5,77,87.2,62.9l1.3,1.3
			c-10.3,15.4-39.8,29.5-56.4,37.2c-21.8,7.7-10.3,33.4,3.8,43.6c38.5,33.4,109,32.1,123.2-21.8c3.8-19.2-1.3-41-20.5-62.9
			c16.7,6.4,35.9,25.7,47.5,38.5c7.7,9,18,9,25.7,2.6c6.4-3.8,11.5-11.5,14.1-20.5C1590,3327.4,1565.6,3260.7,1509.2,3267.1z
			 M1454,3350.5c-6.4,0-10.3-5.1-10.3-10.3c0-6.4,3.8-10.3,10.3-10.3c5.1,0,10.3,3.8,10.3,10.3
			C1464.3,3345.3,1459.1,3350.5,1454,3350.5z"/>
		<path class="st2" d="M1453.4,3503.5c-90.7,0-164.4-73.5-164.4-163.9s73.8-163.9,164.4-163.9c90.7,0,164.4,73.5,164.4,163.9
			S1544.1,3503.5,1453.4,3503.5z M1453.4,3191.6c-81.8,0-148.4,66.4-148.4,147.9s66.6,147.9,148.4,147.9s148.4-66.4,148.4-147.9
			S1535.3,3191.6,1453.4,3191.6z"/>
	</g>
</g>
<g>
	<g>
		<path class="st1" d="M2225.5,3047h-392c-33.1,0-60-26.9-60-60v-392c0-33.1,26.9-60,60-60h392c33.1,0,60,26.9,60,60v392
			C2285.5,3020.2,2258.6,3047,2225.5,3047z"/>
	</g>
	<path class="st2" d="M2194.1,2939.9l-11.7,0v-153c0-4.7-3.8-8.5-8.5-8.5H2141v-93.1c0-5.6-3.3-10.2-7.4-10.2h-63
		c-4.1,0-7.4,4.6-7.4,10.2v70.7h-37.5c-4.7,0-8.5,3.8-8.5,8.5v30.6h-31.9v-66.9c0-4.7-3.8-8.5-8.5-8.5v-28.7c0-4.7-3.8-8.5-8.5-8.5
		h-4.7l0-11.2c0-9.9-6.4-18.2-15.3-21.2v-31.4c0-3.9-3.1-7-7-7s-7,3.1-7,7v31.4c-8.9,2.9-15.3,11.3-15.3,21.2l0,11.2h-4.7
		c-4.7,0-8.5,3.8-8.5,8.5v28.7h-1.2c-4.7,0-8.5,3.8-8.5,8.6v211.5l-19.7,0c-4.5,0-8.1,3.6-8.1,8c0,4.4,3.6,8,8.1,8l27.2,0
		c0.3,0,0.7,0.1,1,0.1h72c0,0,0.1,0,0.1,0l92.7,0.1c0.3,0.1,0.6,0.1,1,0.1h63c0.2,0,0.4,0,0.7,0l59.8,0c4.5,0,8.1-3.6,8.1-8
		C2202.2,2943.5,2198.6,2939.9,2194.1,2939.9z M1921.9,2698.4h38.9v21.2h-38.9V2698.4z M1927.7,2896.6c0,3.1-3.1,5.6-6.8,5.6
		s-6.8-2.5-6.8-5.6v-11.1c0-3.1,3.1-5.6,6.8-5.6s6.8,2.5,6.8,5.6V2896.6z M1927.7,2852.1c0,3.1-3.1,5.6-6.8,5.6s-6.8-2.5-6.8-5.6
		V2841c0-3.1,3.1-5.6,6.8-5.6s6.8,2.5,6.8,5.6V2852.1z M1927.7,2807.6c0,3.1-3.1,5.6-6.8,5.6s-6.8-2.5-6.8-5.6v-11.1
		c0-3.1,3.1-5.6,6.8-5.6s6.8,2.5,6.8,5.6V2807.6z M1927.7,2763.1c0,3.1-3.1,5.6-6.8,5.6s-6.8-2.5-6.8-5.6V2752
		c0-3.1,3.1-5.6,6.8-5.6s6.8,2.5,6.8,5.6V2763.1z M1948.2,2918.9c0,3.1-3.1,5.6-6.8,5.6c-3.8,0-6.8-2.5-6.8-5.6v-11.1
		c0-3.1,3.1-5.6,6.8-5.6c3.8,0,6.8,2.5,6.8,5.6V2918.9z M1948.2,2874.4c0,3.1-3.1,5.6-6.8,5.6c-3.8,0-6.8-2.5-6.8-5.6v-11.1
		c0-3.1,3.1-5.6,6.8-5.6c3.8,0,6.8,2.5,6.8,5.6V2874.4z M1948.2,2829.9c0,3.1-3.1,5.6-6.8,5.6c-3.8,0-6.8-2.5-6.8-5.6v-11.1
		c0-3.1,3.1-5.6,6.8-5.6c3.8,0,6.8,2.5,6.8,5.6V2829.9z M1948.2,2785.4c0,3.1-3.1,5.6-6.8,5.6c-3.8,0-6.8-2.5-6.8-5.6v-11.1
		c0-3.1,3.1-5.6,6.8-5.6c3.8,0,6.8,2.5,6.8,5.6V2785.4z M1968.7,2896.6c0,3.1-3.1,5.6-6.8,5.6c-3.8,0-6.8-2.5-6.8-5.6v-11.1
		c0-3.1,3.1-5.6,6.8-5.6c3.8,0,6.8,2.5,6.8,5.6V2896.6z M1968.7,2852.1c0,3.1-3.1,5.6-6.8,5.6c-3.8,0-6.8-2.5-6.8-5.6V2841
		c0-3.1,3.1-5.6,6.8-5.6c3.8,0,6.8,2.5,6.8,5.6V2852.1z M1968.7,2807.6c0,3.1-3.1,5.6-6.8,5.6c-3.8,0-6.8-2.5-6.8-5.6v-11.1
		c0-3.1,3.1-5.6,6.8-5.6c3.8,0,6.8,2.5,6.8,5.6V2807.6z M1968.7,2763.1c0,3.1-3.1,5.6-6.8,5.6c-3.8,0-6.8-2.5-6.8-5.6V2752
		c0-3.1,3.1-5.6,6.8-5.6c3.8,0,6.8,2.5,6.8,5.6V2763.1z M2033.2,2803.5V2772h26.6V2884h-26.6V2803.5z M1990.6,2811h26.6v73h-26.6
		V2811z M2063.1,2939.8l-77.9-0.1V2900h39.4c0.2,0,0.3,0,0.5,0c0.2,0,0.3,0,0.5,0h37.5V2939.8z M2096.1,2922.3
		c0,3.1-3.2,5.6-7.1,5.6s-7.1-2.5-7.1-5.6v-189.1c0-3.1,3.2-5.6,7.1-5.6s7.1,2.5,7.1,5.6V2922.3z M2096.1,2710.9
		c0,3.1-3.2,5.6-7.1,5.6s-7.1-2.5-7.1-5.6v-11.1c0-3.1,3.2-5.6,7.1-5.6s7.1,2.5,7.1,5.6V2710.9z M2124.4,2922.3
		c0,3.1-3.2,5.6-7.1,5.6c-3.9,0-7.1-2.5-7.1-5.6v-11.1c0-3.1,3.2-5.6,7.1-5.6c3.9,0,7.1,2.5,7.1,5.6V2922.3z M2124.4,2888.9
		c0,3.1-3.2,5.6-7.1,5.6c-3.9,0-7.1-2.5-7.1-5.6v-189.1c0-3.1,3.2-5.6,7.1-5.6c3.9,0,7.1,2.5,7.1,5.6V2888.9z M2166.3,2939.8H2141
		v-145.4h25.3V2939.8z"/>
</g>
<g>
	<g>
		<path class="st1" d="M2231.7,3596.4h-392c-33.1,0-60-26.9-60-60v-392c0-33.1,26.9-60,60-60h392c33.1,0,60,26.9,60,60v392
			C2291.7,3569.5,2264.8,3596.4,2231.7,3596.4z"/>
	</g>
	<g>
		<path class="st2" d="M2191.7,3208.6h-312c-6.1,0-11,5-11,11v203.6c0,6.1,5,11,11,11h91.8v15.5h-10.8c-5.9,0-10.6,4.8-10.6,10.6
			v12.7h-20.6c-4.4,0-8,3.6-8,8s3.6,8,8,8h31.2h148.9h32.2c4.4,0,8-3.6,8-8s-3.6-8-8-8h-21.5v-12.7c0-5.9-4.8-10.6-10.6-10.6h-11.3
			v-15.5h93.4c6.1,0,11-5,11-11v-203.6C2202.7,3213.5,2197.7,3208.6,2191.7,3208.6z M2104.3,3473.1h-138.2v-7.4h20.3h97.1h20.8
			V3473.1z M2082.3,3449.7h-94.8v-15.5h94.8V3449.7z M2186.7,3418.3h-103.3h-97.1h-101.7v-193.7h302.1V3418.3z"/>
		<path class="st2" d="M1906.6,3406.5h258.2c6.1,0,11-4.9,11-11v-148.1c0-6.1-4.9-11-11-11h-258.2c-6.1,0-11,4.9-11,11v148.1
			C1895.5,3401.6,1900.5,3406.5,1906.6,3406.5z M1911.5,3252.4h248.3v138.1h-248.3V3252.4z"/>
		<circle class="st2" cx="1928.1" cy="3287.8" r="8"/>
		<circle class="st2" cx="1928.1" cy="3266.4" r="8"/>
		<circle class="st2" cx="1950.1" cy="3266.4" r="8"/>
	</g>
</g>
<g>
	<path class="st2" d="M3348.7,3685.7h-278.8c-4.6,0-8.3-3.7-8.3-8.3v-30.1c0-4.6,3.7-8.3,8.3-8.3h278.8c4.6,0,8.3,3.7,8.3,8.3v30.1
		C3357,3682,3353.3,3685.7,3348.7,3685.7z"/>
	<path d="M3128.4,3483.8c0-13.1,6.2-25.9,17.3-36c2.4-2.2,2-5.4-0.9-7.2c-2.9-1.8-7.2-1.5-9.7,0.7c-13.2,11.9-20.5,27.1-20.5,42.6
		c0,15.6,7.4,30.9,20.8,42.9c11.4,10.2,17.6,23,17.6,36.3c0,13.1-6.2,25.9-17.3,36c-2.4,2.2-2,5.4,0.9,7.2c1.3,0.8,2.8,1.2,4.4,1.2
		c2,0,3.9-0.6,5.3-1.9c13.2-11.9,20.5-27.1,20.5-42.6c0-15.6-7.4-30.9-20.8-42.9C3134.6,3509.9,3128.4,3497.1,3128.4,3483.8
		L3128.4,3483.8z"/>
	<path d="M3185.3,3483.8c0-13.1,6.2-25.9,17.3-36c2.4-2.2,2-5.4-0.9-7.2c-2.9-1.8-7.2-1.5-9.7,0.7c-13.2,11.9-20.5,27.1-20.5,42.6
		c0,15.6,7.4,30.9,20.8,42.9c11.4,10.2,17.6,23,17.6,36.3c0,13.1-6.2,25.9-17.3,36c-2.4,2.2-2,5.4,0.9,7.2c1.3,0.8,2.8,1.2,4.4,1.2
		c2,0,3.9-0.6,5.3-1.9c13.2-11.9,20.5-27.1,20.5-42.6c0-15.6-7.4-30.9-20.8-42.9C3191.6,3509.9,3185.3,3497.1,3185.3,3483.8
		L3185.3,3483.8z"/>
	<path d="M3259.9,3520.1c-11.4-10.2-17.6-23-17.6-36.3c0-13.1,6.2-25.9,17.3-36c2.4-2.2,2-5.4-0.9-7.2c-2.9-1.8-7.2-1.5-9.7,0.7
		c-13.2,11.9-20.5,27.1-20.5,42.6c0,15.6,7.4,30.9,20.8,42.9c11.4,10.2,17.6,23,17.6,36.3c0,13.1-6.2,25.9-17.3,36
		c-2.4,2.2-2,5.4,0.9,7.2c1.3,0.8,2.8,1.2,4.4,1.2c2,0,3.9-0.6,5.3-1.9c13.2-11.9,20.5-27.1,20.5-42.6
		C3280.7,3547.3,3273.3,3532.1,3259.9,3520.1L3259.9,3520.1z"/>
</g>
<g id="ouJLcO_00000106139740773989870720000000202499258277928378_">
	
		<image style="overflow:visible;" width="225" height="225" id="ouJLcO" xlink:href="C557C4B5AB2083AE.jpg"  transform="matrix(1 0 0 1 3412.4172 3337.2378)">
	</image>
</g>
<path class="st2" d="M4040.4,4214.6c19.5,3.8,36.4-11.1,36.4-30c0-9.9-4.9-18.9-12.5-24.4v-66.6c0-9.9-7.9-18-18-18
	c-9.9,0-18,8.1-18,18v66.6c-9,6.7-14.3,18-11.6,30.8C4018.9,4202.6,4028.5,4212.2,4040.4,4214.6L4040.4,4214.6z M4032,4165.7l2.6-2
	v-69.8c0-6.4,5.2-11.3,11.3-11.3c6.4,0,11.6,5.2,11.6,11.3v69.8l2.6,2c6.1,4.4,9.6,11.6,9.6,19.2c0,6.4-2.6,12.5-7,16.9
	c-4.7,4.4-10.5,7-16.9,7c-11.9,0-21.2-8.4-23.3-18.9C4021.2,4180.2,4024.7,4170.9,4032,4165.7z"/>
<g>
	<g>
		<path class="st1" d="M2803.5,3594.9h-392c-33.1,0-60-26.9-60-60v-392c0-33.1,26.9-60,60-60h392c33.1,0,60,26.9,60,60v392
			C2863.5,3568,2836.7,3594.9,2803.5,3594.9z"/>
	</g>
	<g>
		<path class="st2" d="M2616.2,3426.9c-2.7,0-5.5-0.5-8.1-1.4l-174.6-63.4c-3.8-1.4-6.3-4.9-6.3-9c0-4.1,2.4-7.6,6.2-9l171.5-64
			c4.4-1.6,9.2-1.7,13.7,0l42.2,15.4c4.1,1.5,6.3,6.1,4.8,10.3c-1.5,4.1-6.1,6.3-10.3,4.8l-42.2-15.4c-0.8-0.3-1.7-0.3-2.6,0
			l-155.2,57.9l158.2,57.4c1.9,0.7,4,0.6,5.8-0.2l137.4-62.6l-12.9-4.7c-4.1-1.5-6.3-6.1-4.8-10.3c1.5-4.1,6.1-6.3,10.3-4.8
			l26.5,9.7c3.9,1.4,6.5,5,6.6,9.1c0.2,4.1-2.2,7.9-5.9,9.6l-150.5,68.6C2622.9,3426.2,2619.6,3426.9,2616.2,3426.9z M2770.4,3352.6
			L2770.4,3352.6L2770.4,3352.6z"/>
		<path class="st2" d="M2616.8,3463c-2.7,0-5.3-0.5-7.9-1.4l-170.6-62.1c-6.6-2.4-11-8.7-11-15.8v-30.9c0-4.4,3.6-8,8-8s8,3.6,8,8
			v30.9c0,0.3,0.2,0.6,0.5,0.7l170.6,62.1c1.7,0.6,3.6,0.6,5.2-0.2l144.4-66.2c1.5-0.7,2.5-2.2,2.5-3.8l-0.1-28.8c0-4.4,3.6-8,8-8
			c0,0,0,0,0,0c4.4,0,8,3.6,8,8l0.1,28.8c0,7.9-4.7,15.1-11.8,18.4l-144.4,66.2C2623.2,3462.3,2620,3463,2616.8,3463z"/>
		<path class="st2" d="M2703.6,3347.4c-18.6,0-33.6-15.1-33.6-33.6c0-9.6,4.1-18.7,11.2-25.1V3227c0-12.2,10-22.2,22.2-22.2
			c12.2,0,22.2,10,22.2,22.2v61.3c7.4,6.4,11.7,15.6,11.7,25.5C2737.3,3332.3,2722.2,3347.4,2703.6,3347.4z M2703.4,3220.8
			c-3.4,0-6.2,2.8-6.2,6.2l0,69.8l-3.5,2.4c-4.8,3.3-7.7,8.8-7.7,14.6c0,9.7,7.9,17.6,17.6,17.6s17.6-7.9,17.6-17.6
			c0-6-3-11.5-8-14.8l-3.6-2.4l0-6.2V3227C2709.6,3223.5,2706.8,3220.8,2703.4,3220.8z"/>
	</g>
</g>
<g>
	<path class="st3" d="M3599.8,4014.3l26.5,9.7c1.8,0.6,1.8,3.1,0.1,3.9l-150.5,68.6c-3.7,1.7-8,1.9-11.9,0.5l-174.6-63.4
		c-1.4-0.5-1.4-2.5,0-3l171.5-64c2.6-1,5.5-1,8.1,0l42.2,15.4"/>
	<path class="st3" d="M3288.4,4031.8v30.9c0,3.7,2.3,7,5.8,8.2l170.7,62.1c3.7,1.3,7.7,1.2,11.3-0.4l144.4-66.2
		c4.4-2,7.1-6.3,7.1-11.1l-0.1-28.8"/>
	<path class="st4" d="M3570.8,3971.2c7,4.6,11.7,12.5,11.7,21.5c0,14.2-11.5,25.6-25.6,25.6c-14.2,0-25.6-11.5-25.6-25.6
		c0-8.8,4.4-16.6,11.2-21.2l0-1.9v-63.7c0-7.8,6.4-14.2,14.2-14.2c7.8,0,14.2,6.4,14.2,14.2v63.4L3570.8,3971.2z"/>
</g>
<g>
	<g>
		<path class="st1" d="M1655.3,4151.6h-392c-33.1,0-60-26.9-60-60v-392c0-33.1,26.9-60,60-60h392c33.1,0,60,26.9,60,60v392
			C1715.3,4124.7,1688.5,4151.6,1655.3,4151.6z"/>
	</g>
	<g>
		<path class="st2" d="M1636.9,3917.1c0.1-0.5,0.1-1.1,0.1-1.6c-0.2-4.1-2.8-7.7-6.6-9.1l-62-22.7c-4.1-1.5-8.7,0.6-10.3,4.8
			c-1.5,4.1,0.6,8.7,4.8,10.3l0.1,0v26.1c0,2.6,2.7,4.3,5,3.2l9.3-4.4c1-0.5,1.6-1.5,1.6-2.6v-16.5l32.4,11.8l-79.8,36.3v-30.4
			c0-1.1-0.9-2-2-2l-8,1.5c-1.1,0-2,0.9-2,2v34.4l-3.5,1.6v-33.7c0-0.7-0.6-1.3-1.3-1.3h-0.5c-0.7,0-1.3,0.6-1.3,1.3v35l-39.2,17.8
			c-1.8,0.8-3.9,0.9-5.8,0.2l-20.3-7.4v-28.8c0-3-2.5-5.5-5.5-5.5s-5.5,2.5-5.5,5.5v24.8l-30.6-11.1l0-33.7c0-1.7-2.1-2.4-3.1-1.1
			l-3,3.5c-0.6,0.7-0.9,1.6-0.9,2.5l0,26.3l-35.9-13V3902l11.5-4.3c4.1-1.5,6.2-6.2,4.7-10.3c-1.5-4.1-6.2-6.2-10.3-4.7l-81.2,30.3
			c-3.1,1.2-5.3,3.8-6,6.9c-0.1,0.4-0.2,0.9-0.2,1.3c0,0,0,0,0,0c0,0.2,0,0.3,0,0.5v0.2c0,0,0,0,0,0c0,0,0,0,0,0v30.6
			c0,7,4.4,13.3,11,15.8l170.6,62.1c2.6,0.9,5.2,1.4,7.9,1.4c3.2,0,6.4-0.7,9.5-2.1l144.4-66.2c7.2-3.3,11.8-10.5,11.8-18.4
			L1636.9,3917.1z M1360.2,3940.2l-3.8-1.4v-34.3l3.8-1.4V3940.2z M1336.4,3912v19.5l-26.5-9.6L1336.4,3912z M1618.5,3949.1
			l-144.4,66.2c-1.7,0.8-3.5,0.8-5.2,0.2l-170.6-62.1c-0.3-0.1-0.5-0.4-0.5-0.7v-18.1l164.9,59.8c2.6,1,5.4,1.4,8.1,1.4
			c3.3,0,6.7-0.7,9.8-2.1l140.4-64l0,15.6C1620.9,3946.9,1620,3948.4,1618.5,3949.1z"/>
		<path class="st2" d="M1389.4,3850.1c14.3,17.2,13.5,21.5,12.3,28c-1.2,6.5-3.6,9.9-9,17.3c-1.1,1.5-2.3,3.2-3.6,5.1
			c-2.5,3.6-1.7,8.6,1.9,11.1c1.4,1,3,1.5,4.6,1.5c2.5,0,5-1.2,6.6-3.4c1.3-1.8,2.4-3.4,3.5-4.9c5.9-8.3,9.9-13.7,11.7-23.7
			c2.3-12.6,0.6-21.5-15.7-41.1c-11.4-13.8-12.5-22.2-12.6-23.4c0.1-0.5,0-0.6,0-1.2c-1.3-12.6,11.5-24.2,11.8-24.5
			c3.3-2.9,3.6-8,0.7-11.3c-2.9-3.3-8-3.7-11.3-0.8c-0.8,0.7-19.1,16.9-17.2,37.7C1373.2,3820.1,1374.6,3832.1,1389.4,3850.1z"/>
		<path class="st2" d="M1520.8,3843.8c14.3,17.2,13.5,21.5,12.3,28c-1.2,6.5-3.6,9.9-9,17.3c-1.1,1.5-2.3,3.2-3.6,5.1
			c-2.5,3.6-1.7,8.6,1.9,11.1c1.4,1,3,1.5,4.6,1.5c2.5,0,5-1.2,6.6-3.4c1.3-1.8,2.4-3.4,3.5-4.9c5.9-8.3,9.9-13.7,11.7-23.7
			c2.3-12.6,0.6-21.5-15.7-41.1c-11.4-13.8-12.5-22.2-12.6-23.4c0.1-0.5,0-0.6,0-1.2c-1.3-12.7,11.6-24.3,11.8-24.5
			c3.3-2.9,3.6-8,0.7-11.3c-2.9-3.3-8-3.7-11.3-0.8c-0.8,0.7-19.1,16.9-17.2,37.7C1504.5,3813.9,1505.9,3825.9,1520.8,3843.8z"/>
		<path class="st2" d="M1455.1,3846.7c14.3,17.2,13.5,21.5,12.3,28c-1.2,6.5-3.6,9.9-9,17.3c-1.1,1.5-2.3,3.2-3.6,5.1
			c-2.5,3.6-1.7,8.6,1.9,11.1c1.4,1,3,1.5,4.6,1.5c2.5,0,5-1.2,6.6-3.4c1.3-1.8,2.4-3.4,3.5-4.9c5.9-8.3,9.9-13.7,11.7-23.7
			c2.3-12.6,0.6-21.5-15.7-41.1c-11.4-13.8-12.5-22.2-12.6-23.4c0.1-0.5,0-0.6,0-1.2c-1.3-12.7,11.6-24.3,11.8-24.5
			c3.3-2.9,3.6-8,0.7-11.3c-2.9-3.3-8-3.7-11.3-0.8c-0.8,0.7-19.1,16.9-17.2,37.7C1438.8,3816.7,1440.2,3828.7,1455.1,3846.7z"/>
		<path class="st2" d="M1482,3904.7l-6.3,9.7c-0.1,0.2-0.2,0.5-0.2,0.7v37.2c0,2.5,2,4.5,4.5,4.5s4.5-2,4.5-4.5v-46.9
			C1484.4,3904.1,1482.7,3903.6,1482,3904.7z"/>
	</g>
</g>
<g>
	<g>
		<path class="st1" d="M2804.1,4173.5h-392c-33.1,0-60-26.9-60-60v-392c0-33.1,26.9-60,60-60h392c33.1,0,60,26.9,60,60v392
			C2864.1,4146.6,2837.2,4173.5,2804.1,4173.5z"/>
	</g>
	<g>
		<path class="st2" d="M2598,3898.4l-2.5,2V3857c0-0.7-0.1-1.3-0.2-1.9l41-29.2v44.8c0,0.1,0,0.1,0,0.2c0,0.2,0,0.3,0,0.5
			c0,0.1,0,0.2,0,0.3c0,0.1,0,0.3,0.1,0.4c0,0.1,0,0.2,0.1,0.4c0,0.1,0.1,0.3,0.1,0.4c0,0.1,0.1,0.2,0.1,0.4c0,0.1,0.1,0.2,0.1,0.4
			c0,0.1,0.1,0.2,0.2,0.4c0.1,0.1,0.1,0.2,0.2,0.3c0.1,0.1,0.1,0.3,0.2,0.4c0.1,0.1,0.1,0.2,0.2,0.3c0.1,0.1,0.2,0.2,0.2,0.4
			c0,0,0.1,0.1,0.1,0.1c0,0.1,0.1,0.1,0.1,0.1c0.1,0.1,0.2,0.2,0.3,0.3c0.1,0.1,0.2,0.2,0.3,0.3c0.1,0.1,0.2,0.2,0.3,0.3
			c0.1,0.1,0.2,0.2,0.3,0.3c0.1,0.1,0.2,0.1,0.2,0.2c0.1,0.1,0.2,0.2,0.4,0.3c0.1,0.1,0.2,0.1,0.3,0.2c0.1,0.1,0.2,0.2,0.4,0.2
			c0.1,0.1,0.2,0.1,0.3,0.2c0.1,0.1,0.2,0.1,0.4,0.2c0.1,0.1,0.2,0.1,0.4,0.2c0.1,0,0.2,0.1,0.3,0.1c0.1,0,0.3,0.1,0.4,0.1
			c0.1,0,0.2,0.1,0.3,0.1c0.1,0,0.3,0.1,0.4,0.1c0.1,0,0.3,0,0.4,0.1c0.1,0,0.3,0,0.4,0c0.1,0,0.3,0,0.4,0c0.1,0,0.1,0,0.2,0
			c0.1,0,0.1,0,0.2,0c0.2,0,0.3,0,0.5,0c0.1,0,0.2,0,0.3,0c0.1,0,0.3,0,0.4-0.1c0.1,0,0.2,0,0.4-0.1c0.1,0,0.3-0.1,0.4-0.1
			c0.1,0,0.2-0.1,0.4-0.1c0.1,0,0.2-0.1,0.4-0.1c0.1,0,0.2-0.1,0.4-0.2c0.1-0.1,0.2-0.1,0.3-0.2c0.1-0.1,0.3-0.1,0.4-0.2
			c0.1-0.1,0.2-0.1,0.3-0.2c0.1-0.1,0.2-0.2,0.4-0.2c0,0,0.1-0.1,0.1-0.1l31.7-23.6c2.1-1.5,3.2-4,3.2-6.5l-0.7-58.8
			c0-3-1.7-5.7-4.4-7c-0.8-0.4-1.6-0.6-2.4-0.8l-24.3-7.7v-10.3c0-0.5,0-1.2-0.1-2.1c0.5-3.9-1.8-7.7-5.7-8.8l-26.4-7.5
			c-0.5-0.2-0.9-0.3-1.2-0.4c-6.1-2.1-8.8-1.2-13.5,2.4c-0.7,0.5-1.5,1.1-2.5,1.8l-70.4,48.7c-0.2,0.1-0.3,0.2-0.4,0.3
			c-0.8,0.7-1.5,1.1-1.9,1.5c-3.9,2.9-5.2,5.4-4.9,10.2c0,0.4,0.1,0.9,0.1,1.6l-0.1,48.4l-21.4,14c0,0,0,0,0,0
			c-0.3,0.2-0.6,0.4-0.8,0.6c-0.1,0.1-0.1,0.1-0.2,0.2c-0.2,0.2-0.4,0.4-0.6,0.6c0,0-0.1,0.1-0.1,0.1c-0.2,0.3-0.4,0.5-0.6,0.8
			c0,0.1-0.1,0.1-0.1,0.2c-0.2,0.3-0.3,0.5-0.4,0.8c0,0,0,0.1-0.1,0.1c-0.1,0.3-0.3,0.6-0.4,1c0,0.1,0,0.1,0,0.2
			c-0.1,0.3-0.1,0.6-0.2,0.9c0,0.1,0,0.2,0,0.2c0,0.3-0.1,0.7-0.1,1v0c0,0,0,0,0,0v62.6l-21.2,13.6c-2.4,1.6-3.8,4.3-3.6,7.1
			c0,0.2,0,0.3,0,0.5l-0.1,63.6c0,3.5,2.2,6.5,5.5,7.6l18.7,6.1v31.3c0,3.3,2,6.2,5,7.4l31.9,12.8c1,0.4,2,0.6,3,0.6
			c1.9,0,3.7-0.7,5.2-1.9l48.4-41.7c1.8-1.5,2.8-3.7,2.8-6.1l-0.1-57.6l8-6.5c3.4-2.8,3.9-7.8,1.1-11.3c-2.8-3.4-7.8-3.9-11.3-1.1
			l-22.4,18.3v-43.4c0-0.4,0-0.8-0.1-1.2l37.1-29.1c3.5-2.7,4.1-7.8,1.4-11.2C2606.5,3896.2,2601.5,3895.6,2598,3898.4z
			 M2579.5,3912.9l-32.3,25.3v-45.6c0-0.8-0.1-1.5-0.3-2.3c0,0,0,0,0-0.1c0.1-0.3,0.1-0.6,0.2-0.8l32.4-23.1V3912.9z M2515.6,3963.1
			l-13.1-3.7l8.8-5.7l12.1,3.2L2515.6,3963.1z M2579,3783.8l11.6,2.7l-29.7,20.7l-11.2-3.1L2579,3783.8z M2570.1,3853.4v-33.2
			l28.6-20l0.6,32.3L2570.1,3853.4z M2554.1,3821.9v37.8l-13-4.1l0.1-37.3L2554.1,3821.9z M2535.8,3870.7l7,2.2l-7.9,5.6l-7.7-2.2
			L2535.8,3870.7z M2531.2,3894.2v48.3l-15.2-4v-48.6L2531.2,3894.2z M2615.2,3821.3l-0.6-32.1l21.8-15.2v32.2L2615.2,3821.3z
			 M2652.3,3854.7v-40.2l15.2-10.8l0.5,39.4L2652.3,3854.7z M2657.5,3791.1l-5.2,3.7v-5.4L2657.5,3791.1z M2612,3760.9
			C2612,3760.9,2612,3760.9,2612,3760.9c1.1-0.8,1.9-1.4,2.6-1.9c0.2,0.1,0.4,0.1,0.7,0.2c0.1,0,0.2,0.1,0.3,0.1l9.9,2.8l-17.2,12
			l-11.5-2.7L2612,3760.9z M2491.2,3972.8l17.4,4.9l1,49.1l-18.4-6L2491.2,3972.8z M2515.4,4045.6
			C2515.4,4045.6,2515.5,4045.6,2515.4,4045.6c0.4,0.1,0.7,0.2,1,0.2c0.1,0,0.2,0,0.3,0.1c0.3,0,0.7,0.1,1,0.1c0,0,0.1,0,0.1,0
			c0.4,0,0.9,0,1.3-0.1c0.1,0,0.2-0.1,0.3-0.1c0.3-0.1,0.6-0.1,0.9-0.2c0.2-0.1,0.3-0.1,0.4-0.2c0.3-0.1,0.5-0.2,0.7-0.3
			c0.2-0.1,0.3-0.2,0.4-0.3c0.2-0.1,0.5-0.3,0.7-0.4c0.1,0,0.1-0.1,0.2-0.1l8.5-6.8v35.3l-15.9-6.4V4045.6z M2579.6,4039.2
			l-32.4,27.9v-42.5l32.3-26.3L2579.6,4039.2z M2555,3997.7l-20.7,16.9l-8.8,7l-0.9-45.2l30.4-23.8V3997.7z"/>
		<path class="st2" d="M2648.6,3913.7c10.7,2,18.4,0.5,35.2-13.4c11.8-9.8,19-10.7,20-10.8c0.4,0,0.5,0,1,0
			c10.8-1.1,20.7,9.8,20.9,10.1c2.5,2.8,6.8,3.1,9.6,0.6c2.8-2.5,3.1-6.8,0.7-9.7c-0.6-0.7-14.5-16.3-32.2-14.7
			c-3.1,0-13.4,1.2-28.7,13.9c-14.7,12.2-18.4,11.5-24,10.5c-5.5-1-8.4-3.1-14.8-7.7c-1.3-1-2.8-2-4.4-3.1c-3.1-2.2-7.4-1.4-9.5,1.7
			c-0.8,1.2-1.2,2.6-1.2,3.9c0,2.2,1,4.3,2.9,5.6c1.5,1.1,2.9,2.1,4.2,3C2635.4,3908.7,2640,3912.1,2648.6,3913.7z"/>
		<path class="st2" d="M2739.4,4002.8c-0.6-0.7-14.5-16.3-32.2-14.7c-3.1,0-13.4,1.2-28.7,13.9c-14.7,12.2-18.4,11.5-24,10.5
			c-5.5-1-8.4-3.1-14.8-7.7c-1.3-1-2.8-2-4.4-3.1c-3.1-2.2-7.4-1.4-9.5,1.7c-0.8,1.2-1.2,2.6-1.2,3.9c0,2.2,1,4.3,2.9,5.6
			c1.5,1.1,2.9,2.1,4.2,3c7.1,5.1,11.7,8.4,20.3,10c10.7,2,18.4,0.5,35.2-13.4c11.8-9.8,19-10.7,20-10.8c0.4,0,0.5,0,1,0
			c10.8-1.2,20.8,9.9,20.9,10.1c2.5,2.8,6.8,3.1,9.6,0.6C2741.6,4010,2741.9,4005.6,2739.4,4002.8z"/>
		<path class="st2" d="M2627,3956.8c1.5,1.1,2.9,2.1,4.2,3c7.1,5.1,11.7,8.4,20.3,10c10.7,2,18.4,0.5,35.2-13.4
			c11.8-9.8,19-10.7,20-10.8c0.4,0,0.5,0,1,0c10.8-1.2,20.8,9.9,20.9,10.1c2.5,2.8,6.8,3.1,9.6,0.6c2.8-2.5,3.1-6.8,0.7-9.7
			c-0.6-0.7-14.5-16.3-32.2-14.7c-3.1,0-13.4,1.2-28.7,13.9c-14.7,12.2-18.4,11.5-24,10.5c-5.5-1-8.4-3.1-14.8-7.7
			c-1.3-1-2.8-2-4.4-3.1c-3.1-2.2-7.4-1.4-9.5,1.7c-0.8,1.2-1.2,2.6-1.2,3.9C2624.1,3953.3,2625.1,3955.5,2627,3956.8z"/>
	</g>
</g>
<g>
	<path class="st5" d="M3241.5,3119.3V3011c0-4.9-1.3-3-3-1.6l-76.8,53.6c-1.5,1-2.3,2.7-2.3,4.5v47.9"/>
	<path class="st3" d="M3130.3,3110.1l0.1-51.5c-0.1-5.1-0.9-3.2,3.8-7l70.4-48.8c6.5-4.7,4.6-4.5,10.3-2.7l26.6,7.5"/>
	<line class="st3" x1="3132.3" y1="3056.9" x2="3160.1" y2="3064.6"/>
	<polyline class="st3" points="3136.4,3133.8 3272.5,3036.8 3273.2,3095.6 3241.5,3119.3 	"/>
	<polyline class="st3" points="3155.4,3118 3131.7,3110.5 3105.2,3127.8 3136.4,3136.7 	"/>
	<polyline class="st3" points="3176.7,3024.2 3203.5,3030.5 3204.6,3082.9 	"/>
	<path class="st3" d="M3185.5,3164.8"/>
	<path class="st3" d="M3185.5,3099"/>
	<line class="st3" x1="3113.7" y1="3221.1" x2="3200.1" y2="3153.2"/>
	<line class="st3" x1="3136.4" y1="3201.7" x2="3136.4" y2="3141.2"/>
	<line class="st3" x1="3105.2" y1="3127.8" x2="3105.2" y2="3194.8"/>
	<polyline class="st3" points="3105.2,3194.8 3080.4,3210.8 3113.7,3220.2 3115,3286.5 3136.4,3269.4 3195.6,3221.1 	"/>
	<line class="st3" x1="3130.3" y1="3199.8" x2="3105.2" y2="3193.1"/>
	<path class="st3" d="M3182.1,3286.5"/>
	<path class="st3" d="M3213.7,3250.8"/>
	<line class="st3" x1="3184.7" y1="3105.6" x2="3184.7" y2="3162.1"/>
	<line class="st3" x1="3243.7" y1="3027.8" x2="3272.1" y2="3036.8"/>
	<path class="st2" d="M3272.2,3138.3c-14.7,12.2-18.4,11.5-24,10.5c-5.5-1-8.4-3.1-14.8-7.7c-1.3-1-2.8-2-4.4-3.1
		c-3.1-2.2-7.4-1.4-9.5,1.7c-0.8,1.2-1.2,2.6-1.2,3.9c0,2.2,1,4.3,2.9,5.6c1.5,1.1,2.9,2.1,4.2,3c7.1,5.1,11.7,8.4,20.3,10
		c10.7,2,18.4,0.5,35.2-13.4c11.8-9.8,19-10.7,20-10.8c0.4,0,0.5,0,1,0c10.8-1.1,20.7,9.8,20.9,10.1c2.5,2.8,6.8,3.1,9.6,0.6
		c2.8-2.5,3.1-6.8,0.7-9.7c-0.6-0.7-14.5-16.3-32.2-14.7C3297.8,3124.4,3287.6,3125.6,3272.2,3138.3z"/>
	<path class="st2" d="M3275.6,3250.6c-14.7,12.2-18.4,11.5-24,10.5c-5.5-1-8.4-3.1-14.8-7.7c-1.3-1-2.8-2-4.4-3.1
		c-3.1-2.2-7.4-1.4-9.5,1.7c-0.8,1.2-1.2,2.6-1.2,3.9c0,2.2,1,4.3,2.9,5.6c1.5,1.1,2.9,2.1,4.2,3c7.1,5.1,11.7,8.4,20.3,10
		c10.7,2,18.4,0.5,35.2-13.4c11.8-9.8,19-10.7,20-10.8c0.4,0,0.5,0,1,0c10.8-1.2,20.8,9.9,20.9,10.1c2.5,2.8,6.8,3.1,9.6,0.6
		c2.8-2.5,3.1-6.8,0.7-9.7c-0.6-0.7-14.5-16.3-32.2-14.7C3301.1,3236.7,3290.9,3237.9,3275.6,3250.6z"/>
	<path class="st2" d="M3275.1,3194.5c-14.7,12.2-18.4,11.5-24,10.5c-5.5-1-8.4-3.1-14.8-7.7c-1.3-1-2.8-2-4.4-3.1
		c-3.1-2.2-7.4-1.4-9.5,1.7c-0.8,1.2-1.2,2.6-1.2,3.9c0,2.2,1,4.3,2.9,5.6c1.5,1.1,2.9,2.1,4.2,3c7.1,5.1,11.7,8.4,20.3,10
		c10.7,2,18.4,0.5,35.2-13.4c11.8-9.8,19-10.7,20-10.8c0.4,0,0.5,0,1,0c10.8-1.2,20.8,9.9,20.9,10.1c2.5,2.8,6.8,3.1,9.6,0.6
		c2.8-2.5,3.1-6.8,0.7-9.7c-0.6-0.7-14.5-16.3-32.2-14.7C3300.7,3180.6,3290.5,3181.8,3275.1,3194.5z"/>
	<polyline class="st3" points="3104.6,3286.5 3104.6,3320.3 3136.4,3333.1 3184.8,3291.4 3184.7,3231.4 	"/>
	<line class="st3" x1="3160.1" y1="3248.6" x2="3160.1" y2="3189.8"/>
	<polyline class="st3" points="3080.4,3211.7 3080.3,3275.3 3115,3286.5 	"/>
	<line class="st3" x1="3136.4" y1="3329.9" x2="3136.4" y2="3272.7"/>
</g>
<g>
	<g>
		<path class="st1" d="M2239.3,4165.7h-392c-33.1,0-60-26.9-60-60v-392c0-33.1,26.9-60,60-60h392c33.1,0,60,26.9,60,60v392
			C2299.3,4138.8,2272.4,4165.7,2239.3,4165.7z"/>
	</g>
	<g>
		<g>
			<path class="st2" d="M2166.9,3809.9c-12.6-5.6-26.8-5.5-39.3,0.4c-2,0.9-2.8,3.4-1.8,5.3c2.9,5.7,9.3,16.7,12.7,21.9
				c1,1.6,3.1,2.2,4.9,1.5c2.6-1,5.2-1.2,8.3-0.1c1.8,0.7,3.8-0.1,4.7-1.8l12.4-21.7C2169.9,3813.5,2169,3810.9,2166.9,3809.9z"/>
			<path class="st2" d="M2100.9,3857.5c1.3,13.7,8.5,26,19.8,33.9c1.8,1.3,4.3,0.8,5.5-1.1c3.5-5.4,9.9-16.4,12.8-21.9
				c0.9-1.7,0.4-3.7-1.1-4.9c-2.1-1.7-3.7-3.9-4.2-7.2c-0.3-1.9-2-3.2-3.9-3.2l-25,0C2102.4,3853.2,2100.7,3855.2,2100.9,3857.5z
				 M2157,3853c0-5.3-4.1-9.3-9.3-9.3c-5.3,0-9.3,4.1-9.3,9.3c0,5.3,4.1,9.4,9.3,9.4C2153.2,3862.4,2157,3858.4,2157,3853z
				 M2174.4,3891.4c11.2-8,18.4-20.3,19.7-34c0.2-2.2-1.5-4.1-3.7-4.3c-6.4-0.4-19.2-0.5-25.3-0.3c-1.9,0.1-3.4,1.5-3.7,3.4
				c-0.4,2.7-1.6,5.1-4.2,7.2c-1.5,1.2-1.8,3.3-0.9,5l12.4,21.7C2169.8,3892.2,2172.5,3892.7,2174.4,3891.4z"/>
		</g>
		<g>
			<path class="st2" d="M2220.8,3916.5c0.1-0.5,0.1-1.1,0.1-1.6c-0.2-4.1-2.8-7.7-6.6-9.1l-26.1-9.6c-4.1-1.5-8.9,0.3-10.5,4.4
				c-1.7,4.2,0.5,8.9,4.7,10.5l12.8,4.7c0,0,0,0.1,0,0.1l-53.8,24.5c0,0-0.1,0-0.1,0l0.3-19.2c0-2.2-1.8-4-4-4l0,0c-2.2,0-4,1.8-4,4
				l-0.3,22.9c0,0,0,0,0,0l-19.3,8.8c0,0-0.1,0-0.1,0l0-47.1c0-1.7-1.3-3-3-3l0,0c-1.7,0-3,1.3-3,3l0,49.9c0,0,0,0,0,0l-24.1,11
				c0,0-0.1,0-0.1,0v-91.4c0,0,0,0,0.1,0l-1.6,0.2c4.1,1.5,8.9-0.3,10.5-4.4c1.7-4.2-0.5-8.9-4.7-10.5l-31-12.1
				c-4.4-1.6-9.3-1.6-13.7,0l-171.5,64c-3.1,1.2-5.3,3.8-6,6.9c-0.1,0.6-0.2,1.2-0.2,1.8v30.9c0,7,4.4,13.3,11,15.8l170.6,62.1
				c2.6,0.9,5.2,1.4,7.9,1.4c3.2,0,6.4-0.7,9.5-2.1l144.4-66.2c7.2-3.3,11.8-10.5,11.8-18.4L2220.8,3916.5z M2067.8,3869.3l4,1.5
				c0,0,0,0,0,0v101.3c0,0,0,0,0,0l-4,1.8c0,0-0.1,0-0.1,0L2067.8,3869.3C2067.7,3869.3,2067.8,3869.3,2067.8,3869.3z M2049,3863.4
				c0.8-0.3,1.7-0.3,2.6,0l13.1,4.8c0,0,0,0,0,0v107.1c0,0,0,0,0,0l-6.9,3.1c-1.8,0.8-3.9,0.9-5.8,0.2l-55.7-20.2c0,0,0,0,0,0v-38.3
				c0-3.6-2.9-6.5-6.5-6.5l0,0c-3.6,0-6.5,2.9-6.5,6.5v33.5c0,0,0,0-0.1,0l-16.8-6.1c0,0,0,0,0,0v-53.3c0,0,0,0,0,0l49.8-18.6
				c0,0,0.1,0,0.1,0v62.9c0,1.1,0.9,2,2,2l0,0c1.1,0,2-0.9,2-2v-64.4c0,0,0,0,0,0L2049,3863.4z M1933,3906.6l4.6-1.7
				c0,0,0.1,0,0.1,0v32.1c0,0,0,0-0.1,0l-4.6-1.7c0,0,0,0,0,0L1933,3906.6C1933,3906.7,1933,3906.7,1933,3906.6z M1940.7,3903.8
				l17.6-6.6c0,0,0.1,0,0.1,0v47.4c0,0,0,0-0.1,0l-17.6-6.4c0,0,0,0,0,0L1940.7,3903.8C1940.7,3903.8,1940.7,3903.8,1940.7,3903.8z
				 M1913,3914.2v14c0,0,0,0-0.1,0l-19-6.9c0,0,0-0.1,0-0.1L1913,3914.2C1913,3914.1,1913,3914.2,1913,3914.2z M2202.4,3948.4
				l-144.4,66.2c-1.7,0.7-3.5,0.8-5.2,0.2l-170.6-62.1c-0.3-0.1-0.5-0.4-0.5-0.7v-18.1c0,0,0,0,0.1,0l164.8,59.8
				c2.6,1,5.4,1.4,8.1,1.4c3.4,0,6.7-0.7,9.8-2.1l140.3-63.9c0,0,0.1,0,0.1,0l0,15.5C2204.9,3946.3,2204,3947.8,2202.4,3948.4z"/>
			<path class="st2" d="M2047.3,3959.3v-77.5c0-2.2-1.8-4-4-4l0,0c-2.2,0-4,1.8-4,4v77.5c0,2.2,1.8,4,4,4l0,0
				C2045.5,3963.3,2047.3,3961.5,2047.3,3959.3z"/>
		</g>
	</g>
</g>
<path d="M1951.8,428.5c0,0,2.6-6.4-2.1-9.7c-4.8-3.3-21.5-14.5-21.5-14.5s-12.2-9.1-7.7-24c0,0,2.3-8.9,14.5-20.5
	c0,0,3.3-3.3,2.1,2.5c-1.2,5.8,3.7,9.7,3.7,9.7l20.3,14.5c0,0,13.1,9.3,3.3,27.3C1964.3,413.8,1960.5,421.3,1951.8,428.5z"/>
<path d="M1998.7,405.9c0,0,4.2-10.2-3.4-15.5s-34.3-23.1-34.3-23.1s-19.5-14.5-12.2-38.3c0,0,3.6-14.2,23.1-32.7c0,0,5.3-5.3,3.3,4
	s5.9,15.5,5.9,15.5l32.3,23.1c0,0,20.8,14.8,5.3,43.5C2018.7,382.5,2012.6,394.4,1998.7,405.9z"/>
<path d="M1921.1,448.2c0,0,1.7-4.1-1.4-6.3c-3.1-2.1-13.9-9.3-13.9-9.3s-7.9-5.9-4.9-15.5c0,0,1.5-5.7,9.3-13.2c0,0,2.1-2.1,1.3,1.6
	c-0.8,3.7,2.4,6.3,2.4,6.3l13.1,9.3c0,0,8.4,6,2.1,17.6C1929.2,438.7,1926.8,443.5,1921.1,448.2z"/>
<circle class="st6" cx="1954.3" cy="373.4" r="115.9"/>
<g>
	<g>
		<path class="st7" d="M1666.3,431.9c-7.4,4.1-13.5,10.1-17.3,17.6c-4.2,8.2-6.4,19.5,1.5,31.9c15.9,24.7,24.4,33.9,13.4,50.7
			c-10.9,16.8,66.5-15.9,49.1-38.3c-17.4-22.4-56.7-44.8-36.1-61.1C1693.8,419.2,1678.1,425.3,1666.3,431.9z"/>
	</g>
	<path class="st8" d="M1687,497.3c-2.3-10.4-27.7-33.7-25.8-52c1.1-10.9,13.4-17,23.1-20.2c-0.1-2-9.9,2.3-18,6.8
		c-7.4,4.1-13.5,10.1-17.3,17.6c-4.2,8.2-6.4,19.5,1.5,31.9c15.9,24.7,24.4,33.9,13.4,50.7c-1.3,2.1-1.3,3.4-0.4,4
		C1678.7,525.9,1689.1,506.5,1687,497.3z"/>
	<g>
		<path class="st7" d="M1638.7,519.6c-6,3.3-10.9,8.2-14,14.2c-3.4,6.7-5.2,15.8,1.2,25.8c12.9,20,19.7,27.5,10.9,41.1
			c-8.8,13.6,53.9-12.9,39.8-31s-45.9-36.2-29.2-49.5C1661,509.3,1648.3,514.3,1638.7,519.6z"/>
	</g>
	<path class="st8" d="M1655.5,572.6c-1.9-8.5-22.4-27.3-20.9-42.1c0.9-8.8,10.8-13.8,18.7-16.4c-0.1-1.6-8,1.9-14.6,5.5
		c-6,3.3-10.9,8.2-14,14.2c-3.4,6.7-5.2,15.8,1.2,25.8c12.9,20,19.7,27.5,10.9,41.1c-1.1,1.7-1.1,2.7-0.3,3.3
		C1648.8,595.8,1657.2,580.1,1655.5,572.6z"/>
	<g>
		<path class="st7" d="M1699.7,537.3c-4.7,2.6-8.6,6.4-11,11.1c-2.7,5.2-4.1,12.4,1,20.2c10.1,15.6,15.4,21.5,8.5,32.1
			c-6.9,10.6,42.1-10.1,31.1-24.3s-35.9-28.3-22.9-38.7C1717.1,529.3,1707.2,533.2,1699.7,537.3z"/>
	</g>
	<path class="st8" d="M1712.8,578.8c-1.5-6.6-17.5-21.3-16.4-32.9c0.7-6.9,8.5-10.8,14.7-12.8c-0.1-1.2-6.3,1.5-11.4,4.3
		c-4.7,2.6-8.6,6.4-11,11.1c-2.7,5.2-4.1,12.4,1,20.2c10.1,15.6,15.4,21.5,8.5,32.1c-0.8,1.3-0.8,2.1-0.2,2.6
		C1707.6,596.8,1714.2,584.6,1712.8,578.8z"/>
</g>
<image style="overflow:visible;" width="260" height="260" xlink:href="../../Downloads/20220228-153116.jpeg"  transform="matrix(1 0 0 1 1120.2087 554.8377)">
</image>
<g>
	<g>
		<g>
			<path class="st7" d="M241.3,135c-15.3,9.6-28,23.8-36,41.5c-8.7,19.4-13.3,46.1,3.1,75.3c33,58.3,50.5,80,27.9,119.7
				s138-37.6,101.9-90.4s-117.7-105.6-74.9-144.3C298.3,105,265.8,119.6,241.3,135z"/>
		</g>
		<path class="st8" d="M284.2,289.4c-4.9-24.7-57.4-79.5-53.6-122.7c2.3-25.7,27.8-40.2,48-47.8c-0.2-4.6-20.6,5.5-37.3,16
			c-15.3,9.6-28,23.8-36,41.5c-8.7,19.4-13.3,46.1,3.1,75.3c33,58.3,50.5,80,27.9,119.7c-2.8,4.8-2.8,7.9-0.8,9.6
			C267.1,356.9,288.5,311.2,284.2,289.4z"/>
	</g>
	<g>
		<g>
			<path class="st7" d="M130.2,178.4c-10.8,6.8-19.8,16.8-25.5,29.3c-6.2,13.7-9.4,32.6,2.2,53.3c23.3,41.3,35.8,56.6,19.7,84.7
				s97.7-26.6,72.1-64s-83.3-74.8-53-102.2C170.5,157.1,147.6,167.5,130.2,178.4z"/>
		</g>
		<path class="st8" d="M160.6,287.7c-3.5-17.4-40.6-56.3-38-86.8c1.6-18.2,19.6-28.5,34-33.8c-0.2-3.3-14.6,3.9-26.4,11.3
			c-10.8,6.8-19.8,16.8-25.5,29.3c-6.2,13.7-9.4,32.6,2.2,53.3c23.3,41.3,35.8,56.6,19.7,84.7c-2,3.4-2,5.6-0.5,6.8
			C148.4,335.5,163.6,303.1,160.6,287.7z"/>
	</g>
	<g>
		<g>
			<path class="st7" d="M371.3,176.5c-9.7,6.1-17.8,15.1-22.8,26.2c-5.5,12.3-8.4,29.2,2,47.6c20.9,36.9,32,50.7,17.7,75.8
				s87.4-23.8,64.5-57.2s-74.5-66.9-47.4-91.4C407.4,157.5,386.9,166.8,371.3,176.5z"/>
		</g>
		<path class="st8" d="M398.5,274.3c-3.1-15.6-36.4-50.3-34-77.6c1.4-16.3,17.6-25.5,30.4-30.3c-0.1-2.9-13,3.5-23.6,10.1
			c-9.7,6.1-17.8,15.1-22.8,26.2c-5.5,12.3-8.4,29.2,2,47.6c20.9,36.9,32,50.7,17.7,75.8c-1.8,3.1-1.8,5-0.5,6
			C387.6,317,401.2,288.1,398.5,274.3z"/>
	</g>
	<path class="st7" d="M256,510.8C115.3,510.8,0.9,396.4,0.9,255.7S115.3,0.6,256,0.6S511.1,115,511.1,255.7S396.7,510.8,256,510.8z
		 M256,29.7c-124.6,0-226,101.4-226,226s101.4,226,226,226s226-101.4,226-226S380.6,29.7,256,29.7z"/>
	<g>
		<defs>
			<path id="SVGID_1_" d="M256,511.4C115.3,511.4,0.9,397,0.9,256.3S115.3,1.2,256,1.2s255.1,114.4,255.1,255.1
				S396.7,511.4,256,511.4z M256,30.3c-124.6,0-226,101.4-226,226s101.4,226,226,226s226-101.4,226-226S380.6,30.3,256,30.3z"/>
		</defs>
		<clipPath id="SVGID_00000050639330094254996550000013983352133502798240_">
			<use xlink:href="#SVGID_1_"  style="overflow:visible;"/>
		</clipPath>
		<polygon style="clip-path:url(#SVGID_00000050639330094254996550000013983352133502798240_);fill:#D16B43;" points="1067.3,-45.1 
			1389.1,482.8 1047.4,520.7 900.7,317 		"/>
	</g>
</g>
<g>
	<g>
		<path class="st7" d="M1351.3,314.9c-7.4,4.6-13.5,11.5-17.3,20c-4.2,9.4-6.4,22.2,1.5,36.3c15.9,28.1,24.4,38.6,13.4,57.7
			c-10.9,19.1,66.5-18.1,49.1-43.6c-17.4-25.5-56.7-50.9-36.1-69.6C1378.8,300.5,1363.2,307.5,1351.3,314.9z"/>
	</g>
	<path class="st8" d="M1372,389.4c-2.3-11.9-27.7-38.3-25.8-59.1c1.1-12.4,13.4-19.4,23.1-23c-0.1-2.2-9.9,2.6-18,7.7
		c-7.4,4.6-13.5,11.5-17.3,20c-4.2,9.4-6.4,22.2,1.5,36.3c15.9,28.1,24.4,38.6,13.4,57.7c-1.3,2.3-1.3,3.8-0.4,4.6
		C1363.8,421.9,1374.1,399.8,1372,389.4z"/>
</g>
<g>
	<g>
		<path class="st7" d="M1297.8,335.8c-5.2,3.3-9.6,8.1-12.3,14.1c-3,6.6-4.5,15.7,1.1,25.7c11.2,19.9,17.2,27.3,9.5,40.8
			s47.1-12.8,34.7-30.8c-12.3-18-40.1-36-25.5-49.2C1317.2,325.6,1306.2,330.6,1297.8,335.8z"/>
	</g>
	<path class="st8" d="M1312.4,388.5c-1.7-8.4-19.6-27.1-18.3-41.8c0.8-8.8,9.5-13.7,16.4-16.3c-0.1-1.6-7,1.9-12.7,5.4
		c-5.2,3.3-9.6,8.1-12.3,14.1c-3,6.6-4.5,15.7,1.1,25.7c11.2,19.9,17.2,27.3,9.5,40.8c-0.9,1.7-0.9,2.7-0.3,3.3
		C1306.6,411.5,1313.9,395.9,1312.4,388.5z"/>
</g>
<g>
	<g>
		<path class="st7" d="M1414,334.9c-4.7,2.9-8.6,7.3-11,12.6c-2.7,5.9-4.1,14.1,1,23c10.1,17.8,15.4,24.4,8.5,36.5
			c-6.9,12.1,42.1-11.5,31.1-27.6c-11-16.1-35.9-32.2-22.9-44C1431.4,325.8,1421.5,330.2,1414,334.9z"/>
	</g>
	<path class="st8" d="M1427.1,382.1c-1.5-7.5-17.5-24.3-16.4-37.4c0.7-7.8,8.5-12.3,14.7-14.6c-0.1-1.4-6.3,1.7-11.4,4.9
		c-4.7,2.9-8.6,7.3-11,12.6c-2.7,5.9-4.1,14.1,1,23c10.1,17.8,15.4,24.4,8.5,36.5c-0.8,1.5-0.8,2.4-0.2,2.9
		C1421.9,402.7,1428.4,388.7,1427.1,382.1z"/>
</g>
<circle class="st10" cx="1358.4" cy="373.1" r="115.9"/>
<g>
	<defs>
		<path id="SVGID_00000165211990479955101170000012743031627434047407_" d="M1358.4,496.3c-67.8,0-122.9-55.1-122.9-122.9
			s55.1-122.9,122.9-122.9s122.9,55.1,122.9,122.9S1426.2,496.3,1358.4,496.3z M1358.4,264.5c-60.1,0-108.9,48.9-108.9,108.9
			s48.9,108.9,108.9,108.9s108.9-48.9,108.9-108.9S1418.5,264.5,1358.4,264.5z"/>
	</defs>
	<clipPath id="SVGID_00000047781915252449038590000013946490374274927530_">
		<use xlink:href="#SVGID_00000165211990479955101170000012743031627434047407_"  style="overflow:visible;"/>
	</clipPath>
	<polygon style="clip-path:url(#SVGID_00000047781915252449038590000013946490374274927530_);fill:#D16B43;" points="1749.4,228.2 
		1904.4,482.5 1739.8,500.8 1669.1,402.6 	"/>
</g>
<g>
	<g>
		<path class="st12" d="M2043.8,736.6c-7.4,4.6-13.5,11.5-17.3,20c-4.2,9.4-6.4,22.2,1.5,36.3c15.9,28.1,24.4,38.6,13.4,57.7
			c-10.9,19.1,66.5-18.1,49.1-43.6c-17.4-25.5-56.7-50.9-36.1-69.6C2071.3,722.1,2055.7,729.1,2043.8,736.6z"/>
	</g>
	<path class="st13" d="M2064.5,811c-2.3-11.9-27.7-38.3-25.8-59.1c1.1-12.4,13.4-19.4,23.1-23c-0.1-2.2-9.9,2.6-18,7.7
		c-7.4,4.6-13.5,11.5-17.3,20c-4.2,9.4-6.4,22.2,1.5,36.3c15.9,28.1,24.4,38.6,13.4,57.7c-1.3,2.3-1.3,3.8-0.4,4.6
		C2056.3,843.5,2066.6,821.5,2064.5,811z"/>
</g>
<g>
	<g>
		<path class="st12" d="M1990.3,757.5c-5.2,3.3-9.6,8.1-12.3,14.1c-3,6.6-4.5,15.7,1.1,25.7c11.2,19.9,17.2,27.3,9.5,40.8
			s47.1-12.8,34.7-30.8c-12.3-18-40.1-36-25.5-49.2C2009.7,747.2,1998.7,752.2,1990.3,757.5z"/>
	</g>
	<path class="st13" d="M2005,810.2c-1.7-8.4-19.6-27.1-18.3-41.8c0.8-8.8,9.5-13.7,16.4-16.3c-0.1-1.6-7,1.9-12.7,5.4
		c-5.2,3.3-9.6,8.1-12.3,14.1c-3,6.6-4.5,15.7,1.1,25.7c11.2,19.9,17.2,27.3,9.5,40.8c-0.9,1.7-0.9,2.7-0.3,3.3
		C1999.1,833.2,2006.4,817.6,2005,810.2z"/>
</g>
<g>
	<g>
		<path class="st12" d="M2106.5,756.6c-4.7,2.9-8.6,7.3-11,12.6c-2.7,5.9-4.1,14.1,1,23c10.1,17.8,15.4,24.4,8.5,36.5
			c-6.9,12.1,42.1-11.5,31.1-27.6c-11-16.1-35.9-32.2-22.9-44C2123.9,747.4,2114,751.9,2106.5,756.6z"/>
	</g>
	<path class="st13" d="M2119.6,803.7c-1.5-7.5-17.5-24.3-16.4-37.4c0.7-7.8,8.5-12.3,14.7-14.6c-0.1-1.4-6.3,1.7-11.4,4.9
		c-4.7,2.9-8.6,7.3-11,12.6c-2.7,5.9-4.1,14.1,1,23c10.1,17.8,15.4,24.4,8.5,36.5c-0.8,1.5-0.8,2.4-0.2,2.9
		C2114.4,824.3,2120.9,810.3,2119.6,803.7z"/>
</g>
<g>
	<defs>
		<path id="SVGID_00000131343690075192877900000005291534083794090407_" d="M2050.9,917.9c-67.8,0-122.9-55.1-122.9-122.9
			s55.1-122.9,122.9-122.9s122.9,55.1,122.9,122.9S2118.7,917.9,2050.9,917.9z M2050.9,686.1c-60.1,0-108.9,48.9-108.9,108.9
			s48.9,108.9,108.9,108.9s108.9-48.9,108.9-108.9S2111,686.1,2050.9,686.1z"/>
	</defs>
	<clipPath id="SVGID_00000111879266183221833510000014276806025921525122_">
		<use xlink:href="#SVGID_00000131343690075192877900000005291534083794090407_"  style="overflow:visible;"/>
	</clipPath>
	<polygon style="clip-path:url(#SVGID_00000111879266183221833510000014276806025921525122_);fill:#D16B43;" points="2441.9,649.8 
		2596.9,904.2 2432.3,922.4 2361.6,824.3 	"/>
</g>
<g>
	<g>
		<path class="st15" d="M1737.4,1063c-7.4,4.6-13.5,11.5-17.3,20c-4.2,9.4-6.4,22.2,1.5,36.3c15.9,28.1,24.4,38.6,13.4,57.7
			c-10.9,19.1,66.5-18.1,49.1-43.6c-17.4-25.5-56.7-50.9-36.1-69.6C1764.9,1048.6,1749.3,1055.6,1737.4,1063z"/>
	</g>
	<path class="st16" d="M1758.1,1137.4c-2.3-11.9-27.7-38.3-25.8-59.1c1.1-12.4,13.4-19.4,23.1-23c-0.1-2.2-9.9,2.6-18,7.7
		c-7.4,4.6-13.5,11.5-17.3,20c-4.2,9.4-6.4,22.2,1.5,36.3c15.9,28.1,24.4,38.6,13.4,57.7c-1.3,2.3-1.3,3.8-0.4,4.6
		C1749.9,1170,1760.2,1147.9,1758.1,1137.4z"/>
</g>
<g>
	<g>
		<path class="st15" d="M1683.9,1083.9c-5.2,3.3-9.6,8.1-12.3,14.1c-3,6.6-4.5,15.7,1.1,25.7c11.2,19.9,17.2,27.3,9.5,40.8
			s47.1-12.8,34.7-30.8c-12.3-18-40.1-36-25.5-49.2C1703.3,1073.7,1692.3,1078.7,1683.9,1083.9z"/>
	</g>
	<path class="st16" d="M1698.5,1136.6c-1.7-8.4-19.6-27.1-18.3-41.8c0.8-8.8,9.5-13.7,16.4-16.3c-0.1-1.6-7,1.9-12.7,5.4
		c-5.2,3.3-9.6,8.1-12.3,14.1c-3,6.6-4.5,15.7,1.1,25.7c11.2,19.9,17.2,27.3,9.5,40.8c-0.9,1.7-0.9,2.7-0.3,3.3
		C1692.7,1159.6,1700,1144,1698.5,1136.6z"/>
</g>
<g>
	<g>
		<path class="st15" d="M1800.1,1083c-4.7,2.9-8.6,7.3-11,12.6c-2.7,5.9-4.1,14.1,1,23c10.1,17.8,15.4,24.4,8.5,36.5
			s42.1-11.5,31.1-27.6s-35.9-32.2-22.9-44C1817.5,1073.9,1807.6,1078.3,1800.1,1083z"/>
	</g>
	<path class="st16" d="M1813.2,1130.1c-1.5-7.5-17.5-24.3-16.4-37.4c0.7-7.8,8.5-12.3,14.7-14.6c-0.1-1.4-6.3,1.7-11.4,4.9
		c-4.7,2.9-8.6,7.3-11,12.6c-2.7,5.9-4.1,14.1,1,23c10.1,17.8,15.4,24.4,8.5,36.5c-0.8,1.5-0.8,2.4-0.2,2.9
		C1808,1150.7,1814.5,1136.8,1813.2,1130.1z"/>
</g>
<circle class="st17" cx="1744.5" cy="1121.2" r="115.9"/>
<g>
	<defs>
		<path id="SVGID_00000175320873629473986800000016910622099293838012_" d="M1744.5,1244.4c-67.8,0-122.9-55.1-122.9-122.9
			s55.1-122.9,122.9-122.9s122.9,55.1,122.9,122.9S1812.3,1244.4,1744.5,1244.4z M1744.5,1012.6c-60.1,0-108.9,48.9-108.9,108.9
			s48.9,108.9,108.9,108.9s108.9-48.9,108.9-108.9S1804.6,1012.6,1744.5,1012.6z"/>
	</defs>
	<clipPath id="SVGID_00000154423788232667403310000013894383466372741269_">
		<use xlink:href="#SVGID_00000175320873629473986800000016910622099293838012_"  style="overflow:visible;"/>
	</clipPath>
	<polygon style="clip-path:url(#SVGID_00000154423788232667403310000013894383466372741269_);fill:#F26033;" points="2135.4,976.2 
		2290.5,1230.6 2125.9,1248.9 2055.2,1150.7 	"/>
</g>
</svg>
