<svg width="70" height="70" viewBox="0 0 70 70" fill="none" xmlns="http://www.w3.org/2000/svg">
<rect width="70" height="70" fill="#EFF7FB"/>
<path d="M34.8694 34.3495C39.0973 34.3495 42.5545 30.913 42.5545 26.6852C42.5545 22.4573 39.1181 19 34.8694 19C30.6415 19 27.2051 22.4365 27.2051 26.6852C27.2051 30.9339 30.6415 34.3495 34.8694 34.3495Z" fill="#CEDFE7"/>
<path d="M40.8689 37.3271H29.8931C24.978 37.3271 21 41.3259 21 46.2203V47.6365C21 49.6359 22.6453 51.2812 24.6447 51.2812H46.1173C48.1167 51.2812 49.762 49.6359 49.762 47.6365V46.2411C49.762 41.3259 45.7633 37.3271 40.8689 37.3271Z" fill="#CEDFE7"/>
</svg>
